<?xml version="1.0" encoding="UTF-8" standalone="no"?>
<svg
   id="Layer_2"
   data-name="Layer 2"
   viewBox="0 0 4800 4000"
   width="4800"
   height="4000"
   class="illustration styles_illustrationTablet__1DWOa"
   version="1.1"
   sodipodi:docname="hero-image.svg"
   inkscape:version="1.1 (c68e22c387, 2021-05-23)"
   xmlns:inkscape="http://www.inkscape.org/namespaces/inkscape"
   xmlns:sodipodi="http://sodipodi.sourceforge.net/DTD/sodipodi-0.dtd"
   xmlns:xlink="http://www.w3.org/1999/xlink"
   xmlns="http://www.w3.org/2000/svg"
   xmlns:svg="http://www.w3.org/2000/svg"
   xmlns:rdf="http://www.w3.org/1999/02/22-rdf-syntax-ns#"
   xmlns:cc="http://creativecommons.org/ns#"
   xmlns:dc="http://purl.org/dc/elements/1.1/">
  <sodipodi:namedview
     id="namedview159"
     pagecolor="#ffffff"
     bordercolor="#666666"
     borderopacity="1.0"
     inkscape:pageshadow="2"
     inkscape:pageopacity="0.0"
     inkscape:pagecheckerboard="0"
     showgrid="false"
     width="400px"
     inkscape:zoom="0.11727343"
     inkscape:cx="2975.9512"
     inkscape:cy="2434.4816"
     inkscape:window-width="1920"
     inkscape:window-height="1001"
     inkscape:window-x="-9"
     inkscape:window-y="-9"
     inkscape:window-maximized="1"
     inkscape:current-layer="g2821" />
  <defs
     id="defs10">
    <linearGradient
       id="linear-gradient"
       x1="40.099998"
       y1="191.78"
       x2="72.830002"
       y2="165.59"
       gradientUnits="userSpaceOnUse">
      <stop
         offset="0"
         stop-color="#cc483e"
         id="stop2" />
      <stop
         offset="1"
         stop-color="#411714"
         id="stop4" />
    </linearGradient>
    <linearGradient
       id="linear-gradient-2"
       x1="313.82001"
       y1="213.31"
       x2="339.72"
       y2="192.59"
       xlink:href="#linear-gradient"
       gradientTransform="translate(-0.32406156,44.277394)" />
    <linearGradient
       id="linear-gradient-3"
       x1="195.28"
       y1="199.46001"
       x2="226.10001"
       y2="145.77"
       xlink:href="#linear-gradient"
       gradientTransform="translate(-0.32406156,44.277394)" />
    <linearGradient
       id="linear-gradient-4"
       x1="165.89999"
       y1="230.07001"
       x2="200.09"
       y2="198.34"
       xlink:href="#linear-gradient"
       gradientTransform="translate(-0.32406156,44.277394)" />
    <linearGradient
       inkscape:collect="always"
       xlink:href="#linear-gradient"
       id="linearGradient1380"
       gradientUnits="userSpaceOnUse"
       x1="40.099998"
       y1="191.78"
       x2="72.830002"
       y2="165.59"
       gradientTransform="translate(-0.32406156,44.277394)" />
  </defs>
  <title
     id="title12">PP_</title>
  <g
     id="g2821"
     transform="matrix(1.266282,0,0,1.266282,-765.705,-218.97119)">
    <path
       id="path924"
       style="fill-opacity:1;stroke-width:2.10785;fill:#ffffff"
       d="M 2500,311.32812 A 1588.6724,1588.6724 0 0 0 911.32812,1900 1588.6724,1588.6724 0 0 0 938.00781,2174.4062 H 4061.9922 A 1588.6724,1588.6724 0 0 0 4088.6719,1900 1588.6724,1588.6724 0 0 0 2500,311.32812 Z" />
    <g
       id="g72910"
       transform="matrix(9.140392,0,0,9.140392,698.93753,107.76631)">
      <path
         d="m 191.39594,334.56739 -177.000002,-104.63 c -5.6399996,-3.16 -10.4699996,-8.36 -4.9999996,-11.77 l 177.6700016,-102.39 c 2.66,-1.65 6.71,-2.73 9.42,-1.16 l 185.84,107.85 c 5.64,3.27 6.65,12.42 1,15.69 l -168.59,96.24 a 23.54,23.54 0 0 1 -23.34,0.17 z"
         fill="#cc483e"
         id="path14"
         style="fill:#f03f66;fill-opacity:1" />
      <path
         d="m 83.435938,217.55739 c 0.18,-0.33 -4.74,-1.32 -4.56,-1.65 0.23,-0.81 -2.92,-1 -2.7,-1.79 -8.29,-3.67 -10,-4.94 -16.3,-11 l -39.69,27.09 c 8,4.93 16.12,9.74 24.33,14.32 l 45.41,-27.07 c 0.14,-0.62 -6.66,1.67 -6.49,1.06 a 0.88,0.88 0 0 1 0,-0.96 z"
         opacity="0.32"
         fill="url(#linear-gradient)"
         id="path16"
         style="fill:url(#linearGradient1380)" />
      <path
         d="m 352.32594,241.81739 c 0.16,-0.29 -4.09,-1.14 -3.93,-1.42 0.2,-0.69 -2.52,-0.84 -2.33,-1.54 -7.15,-3.16 -8.62,-4.26 -14,-9.51 l -34.22,23.38 c 6.92,4.25 13.89,8.4 21,12.35 l 33.09,-20.8 q 0.18,-0.8 0.39,-1.6 a 0.76,0.76 0 0 1 0,-0.86 z"
         opacity="0.32"
         fill="url(#linear-gradient-2)"
         id="path18"
         style="fill:url(#linear-gradient-2)" />
      <path
         d="m 295.67594,199.63739 c 0,0 -0.81,38.33 -2,39.42 -1.19,1.09 -6.3,-35.33 -6.3,-35.33"
         fill="#844040"
         id="path20" />
      <ellipse
         cx="337.13593"
         cy="234.04739"
         rx="22.459999"
         ry="13.16"
         fill="#ff912e"
         id="ellipse22" />
      <polygon
         points="315,185.97 317.44,189.01 315,189.77 "
         fill="#e0944f"
         id="polygon24"
         transform="translate(-0.32406156,44.277394)" />
      <polygon
         points="357.07,189.77 359.16,186.72 359.93,185.97 359.93,189.77 "
         fill="#e0944f"
         id="polygon26"
         transform="translate(-0.32406156,44.277394)" />
      <ellipse
         cx="337.13593"
         cy="230.24739"
         rx="22.459999"
         ry="13.16"
         fill="#ffb92c"
         id="ellipse28" />
      <path
         d="m 348.53594,228.48739 a 1.75,1.75 0 0 1 0.18,1 l -0.09,0.35 h -4.1 a 1.86,1.86 0 0 0 0.08,-0.35 1.53,1.53 0 0 0 -0.25,-0.75 2.24,2.24 0 0 0 -1,-0.91 4.49,4.49 0 0 0 -1.93,-0.51 4.15,4.15 0 0 0 -1.83,0.28 q -0.86,0.37 -0.66,1 a 3.55,3.55 0 0 0 0.87,1.28 15.62,15.62 0 0 1 1.24,1.43 1.5,1.5 0 0 1 0.22,1.58 3.53,3.53 0 0 1 -2,1.55 11.8,11.8 0 0 1 -4.35,0.9 13.9,13.9 0 0 1 -4.75,-0.67 l -2.36,1 -2.77,-1.35 2.29,-1 a 5.17,5.17 0 0 1 -1.1,-1 2.92,2.92 0 0 1 -0.54,-0.92 3,3 0 0 1 -0.14,-0.74 1.6,1.6 0 0 1 0,-0.52 l 0.08,-0.2 h 4.1 a 3.27,3.27 0 0 0 -0.1,0.42 1.75,1.75 0 0 0 0.33,0.93 3.08,3.08 0 0 0 1.36,1.16 5.83,5.83 0 0 0 2.38,0.62 5,5 0 0 0 2.2,-0.35 q 0.85,-0.37 0.64,-1 a 3.54,3.54 0 0 0 -0.91,-1.28 13.13,13.13 0 0 1 -1.25,-1.43 1.47,1.47 0 0 1 -0.18,-1.59 3.82,3.82 0 0 1 2.09,-1.58 11.28,11.28 0 0 1 4.17,-0.82 12,12 0 0 1 4.45,0.69 l 2.35,-1 2.57,1.4 -2.36,1 a 3.36,3.36 0 0 1 1.07,1.38 z"
         fill="#ea8b24"
         id="path30" />
      <ellipse
         cx="337.17593"
         cy="230.40739"
         rx="18.860001"
         ry="11.05"
         fill="none"
         stroke="#f7931e"
         stroke-miterlimit="10"
         stroke-width="6"
         id="ellipse32" />
      <ellipse
         cx="337.13593"
         cy="226.79739"
         rx="22.459999"
         ry="13.16"
         fill="#ff912e"
         id="ellipse34" />
      <polygon
         points="315,178.72 317.44,181.76 315,182.52 "
         fill="#e0944f"
         id="polygon36"
         transform="translate(-0.32406156,44.277394)" />
      <polygon
         points="357.07,182.52 359.16,179.47 359.93,178.72 359.93,182.52 "
         fill="#e0944f"
         id="polygon38"
         transform="translate(-0.32406156,44.277394)" />
      <ellipse
         cx="337.13593"
         cy="222.99739"
         rx="22.459999"
         ry="13.16"
         fill="#ffb92c"
         id="ellipse40" />
      <path
         d="m 348.53594,221.27739 a 1.75,1.75 0 0 1 0.18,1 l -0.09,0.35 h -4.1 a 1.86,1.86 0 0 0 0.08,-0.35 1.53,1.53 0 0 0 -0.25,-0.75 2.24,2.24 0 0 0 -1,-0.91 4.49,4.49 0 0 0 -1.93,-0.51 4.15,4.15 0 0 0 -1.83,0.28 q -0.86,0.37 -0.66,1 a 3.55,3.55 0 0 0 0.87,1.28 15.62,15.62 0 0 1 1.24,1.43 1.5,1.5 0 0 1 0.22,1.58 3.53,3.53 0 0 1 -2,1.55 11.8,11.8 0 0 1 -4.35,0.9 13.9,13.9 0 0 1 -4.75,-0.67 l -2.36,1 -2.77,-1.35 2.29,-1 a 5.17,5.17 0 0 1 -1.1,-1 2.92,2.92 0 0 1 -0.54,-0.92 3,3 0 0 1 -0.14,-0.74 1.6,1.6 0 0 1 0,-0.52 l 0.08,-0.2 h 4.1 a 3.27,3.27 0 0 0 -0.1,0.42 1.75,1.75 0 0 0 0.33,0.93 3.08,3.08 0 0 0 1.36,1.16 5.83,5.83 0 0 0 2.38,0.62 5,5 0 0 0 2.2,-0.35 q 0.85,-0.37 0.64,-1 a 3.54,3.54 0 0 0 -0.86,-1.23 13.13,13.13 0 0 1 -1.25,-1.43 1.47,1.47 0 0 1 -0.18,-1.59 3.82,3.82 0 0 1 2.09,-1.58 11.28,11.28 0 0 1 4.17,-0.82 12,12 0 0 1 4.45,0.69 l 2.35,-1 2.57,1.4 -2.36,1 a 3.36,3.36 0 0 1 1.02,1.33 z"
         fill="#ea8b24"
         id="path42" />
      <ellipse
         cx="337.17593"
         cy="223.15739"
         rx="18.860001"
         ry="11.05"
         fill="none"
         stroke="#f7931e"
         stroke-miterlimit="10"
         stroke-width="2"
         id="ellipse44" />
      <ellipse
         cx="328.35593"
         cy="221.25739"
         rx="22.459999"
         ry="13.16"
         fill="#ff912e"
         id="ellipse46" />
      <polygon
         points="306.22,173.18 308.66,176.22 306.22,176.98 "
         fill="#e0944f"
         id="polygon48"
         transform="translate(-0.32406156,44.277394)" />
      <polygon
         points="348.29,176.98 350.38,173.93 351.14,173.18 351.14,176.98 "
         fill="#e0944f"
         id="polygon50"
         transform="translate(-0.32406156,44.277394)" />
      <ellipse
         cx="328.35593"
         cy="217.45738"
         rx="22.459999"
         ry="13.16"
         fill="#ffb92c"
         id="ellipse52" />
      <path
         d="m 339.74594,215.69739 a 1.75,1.75 0 0 1 0.18,1 l -0.09,0.35 h -4.1 a 1.86,1.86 0 0 0 0.08,-0.35 1.53,1.53 0 0 0 -0.25,-0.75 2.24,2.24 0 0 0 -1,-0.91 4.49,4.49 0 0 0 -1.93,-0.51 4.15,4.15 0 0 0 -1.83,0.28 q -0.86,0.37 -0.66,1 a 3.55,3.55 0 0 0 0.87,1.28 15.62,15.62 0 0 1 1.24,1.43 1.5,1.5 0 0 1 0.22,1.58 3.53,3.53 0 0 1 -2,1.55 11.8,11.8 0 0 1 -4.35,0.9 13.9,13.9 0 0 1 -4.75,-0.67 l -2.36,1 -2.77,-1.35 2.29,-1 a 5.17,5.17 0 0 1 -1.1,-1 2.92,2.92 0 0 1 -0.54,-0.92 3,3 0 0 1 -0.14,-0.74 1.6,1.6 0 0 1 0,-0.52 l 0.08,-0.2 h 4.1 a 3.27,3.27 0 0 0 -0.1,0.42 1.75,1.75 0 0 0 0.33,0.93 3.08,3.08 0 0 0 1.36,1.16 5.83,5.83 0 0 0 2.38,0.62 5,5 0 0 0 2.2,-0.35 q 0.85,-0.37 0.64,-1 a 3.54,3.54 0 0 0 -0.91,-1.28 13.13,13.13 0 0 1 -1.16,-1.37 1.47,1.47 0 0 1 -0.18,-1.59 3.82,3.82 0 0 1 2.09,-1.58 11.28,11.28 0 0 1 4.17,-0.82 12,12 0 0 1 4.45,0.69 l 2.35,-1 2.57,1.4 -2.36,1 a 3.36,3.36 0 0 1 0.98,1.32 z"
         fill="#ea8b24"
         id="path54" />
      <ellipse
         cx="328.39594"
         cy="217.61739"
         rx="18.860001"
         ry="11.05"
         fill="none"
         stroke="#f7931e"
         stroke-miterlimit="10"
         stroke-width="2"
         id="ellipse56" />
      <polyline
         points="123.25 86.46 123.25 154.14 103.77 165.29 81.77 152.29 81.77 84.61"
         fill="#ff734d"
         id="polyline58"
         transform="translate(-0.32406156,44.277394)" />
      <polygon
         points="81.77,84.61 103.77,97.6 123.25,86.46 100.64,73.59 "
         fill="#ffb5a4"
         id="polygon60"
         transform="translate(-0.32406156,44.277394)" />
      <polygon
         points="81.77,152.29 81.77,84.61 103.77,97.6 103.77,165.29 "
         fill="#f78b72"
         id="polygon62"
         transform="translate(-0.32406156,44.277394)" />
      <polygon
         points="62.29,163.59 62.29,110 81.16,98.98 103.77,111.85 103.77,165.45 84.29,176.59 "
         fill="#000080"
         id="polygon64"
         transform="translate(-0.32406156,44.277394)" />
      <polygon
         points="62.29,110 84.29,122.99 103.77,111.85 81.16,98.98 "
         fill="#ffffff"
         opacity="0.49"
         id="polygon66"
         style="fill:#c3c3ec;fill-opacity:1"
         transform="translate(-0.32406156,44.277394)" />
      <polygon
         points="62.29,163.59 62.29,110 84.29,122.99 84.29,176.59 "
         opacity="0.2"
         id="polygon68"
         style="fill:#5555ca;fill-opacity:1"
         transform="translate(-0.32406156,44.277394)" />
      <polyline
         points="84.29 151.94 84.29 176.91 64.81 188.06 42.81 175.06 42.81 150.09"
         fill="#ffad4a"
         id="polyline70"
         transform="translate(-0.32406156,44.277394)" />
      <polygon
         points="42.81,150.09 64.81,163.08 84.29,151.94 61.69,139.07 "
         fill="#ffdd99"
         id="polygon72"
         transform="translate(-0.32406156,44.277394)" />
      <polygon
         points="42.81,175.06 42.81,150.09 64.81,163.08 64.81,188.06 "
         fill="#ffc36c"
         id="polygon74"
         transform="translate(-0.32406156,44.277394)" />
      <path
         d="m 156.79594,165.27739 c 0.79,2.27 -1.93,46.41 -0.63,47 1.3,0.59 8.24,-46.52 8.24,-46.52"
         fill="#844040"
         id="path76" />
      <path
         d="m 243.38594,270.80739 c 0.08,0 51.67,-32.86 51.72,-32.82 l -86,-52.4 -41.33,-14.78 -43.6,27.47 c 11.44,6.86 107.02,67.11 119.21,72.53 z"
         opacity="0.32"
         fill="url(#linear-gradient-3)"
         id="path78"
         style="fill:url(#linear-gradient-3)" />
      <path
         d="m 142.41594,285.11739 c 5.14,1.58 12.9,9.74 18.18,10.8 3.23,0.65 7.92,5.22 11.18,5.47 l 13.1,-13.79 37.92,-28.2 -26.82,-18.58 -70.8,32.85 c 8.5,6.22 7.31,8.41 17.24,11.45 z"
         opacity="0.32"
         fill="url(#linear-gradient-4)"
         id="path80"
         style="fill:url(#linear-gradient-4)" />
      <path
         d="m 190.56594,229.42739 c -3.82,-2.67 -8.32,-4.13 -13.17,-3.06 -5.17,1.14 -9.65,4.39 -14.92,5.19 -0.83,0.13 -4.16,-0.09 -4.67,0.39 -14.67,13.88 26.33,12.39 26.33,12.39 4,-3.26 7.72,-6.47 11.67,-9.76 -1.19,-2.67 -3.2,-3.72 -5.24,-5.15 z"
         fill="#f8997c"
         id="path82" />
      <path
         d="m 171.26594,249.54739 -1.46,41.88 c -0.06,1.59 2.41,1.59 2.47,0 l 1.46,-41.88 c 0.05,-1.58 -2.41,-1.58 -2.47,0 z"
         fill="#844040"
         id="path84" />
      <path
         d="m 202.00594,271.95739 q -11.2,-11 -21.4,-22.88 c -1,-1.21 -2.77,0.54 -1.75,1.75 q 10.19,11.91 21.4,22.88 c 1.14,1.11 2.89,-0.64 1.75,-1.75 z"
         fill="#844040"
         id="path86" />
      <path
         d="m 162.67594,245.67739 q -8.69,16.41 -16.38,33.33 c -0.65,1.44 1.47,2.69 2.13,1.25 q 7.68,-16.91 16.38,-33.33 c 0.78,-1.41 -1.35,-2.65 -2.13,-1.25 z"
         fill="#844040"
         id="path88" />
      <path
         d="m 195.12594,233.34739 a 19.86,19.86 0 0 1 -9.93,7.18 c -5.61,1.68 -13.75,0.89 -16.7,-4.89 -5.36,-10.5 -0.33,-23.65 -6,-33.86 a 10.36,10.36 0 0 0 -6.56,-5.31 c -3.67,-0.79 -6.18,1.92 -7.51,5.12 -2.39,5.73 -2.3,12.86 -2.18,19 a 102,102 0 0 0 1.09,14.69 c 0,0 3.43,20.47 30.16,15 a 40.57,40.57 0 0 0 13.13,-4.79 18,18 0 0 0 5.36,-4.64 c 1.63,-2.36 0.55,-5.15 -0.86,-7.5 z"
         fill="#000080"
         id="path90" />
      <path
         d="m 188.93594,172.40739 c 0,0 -13.84,59.73 -11.45,61.31 2.39,1.58 19.34,-55.81 19.34,-55.81"
         fill="#844040"
         id="path92" />
      <path
         d="m 244.01594,223.79739 c 0.79,2.27 -1.93,46.41 -0.63,47 1.3,0.59 8.24,-46.52 8.24,-46.52"
         fill="#844040"
         id="path94" />
      <polyline
         points="151.09 123.75 150.97 119.21 152.7 121.64 151.59 123.84"
         fill="#d37800"
         id="polyline96"
         transform="translate(-0.32406156,44.277394)" />
      <polyline
         points="306.44 156.71 306.38 151.63 304.4 152.27 305.42 156.53"
         fill="#d37800"
         id="polyline98"
         transform="translate(-0.32406156,44.277394)" />
      <path
         d="m 153.90594,163.20739 41.34,-23.87 a 9.64,9.64 0 0 1 9.64,0 l 98,56.6 a 6.44,6.44 0 0 1 0,11.16 l -41.41,23.91 a 9.22,9.22 0 0 1 -9.22,0 l -98.38,-56.8 a 6.35,6.35 0 0 1 0.03,-11 z"
         fill="#d37800"
         id="path100" />
      <path
         d="m 153.82594,157.62739 41.34,-23.87 a 9.64,9.64 0 0 1 9.64,0 l 98,56.6 a 6.44,6.44 0 0 1 0,11.16 l -41.41,23.91 a 9.22,9.22 0 0 1 -9.22,0 l -98.38,-56.8 a 6.35,6.35 0 0 1 0.03,-11 z"
         fill="#fca930"
         id="path102" />
      <path
         d="m 226.29594,199.27739 c 0.68,0.17 20.72,12.32 20.72,12.32 l 29.32,-16.64 -20.11,-12 z"
         fill="#ffffff"
         id="path104"
         style="fill:#ececf9;fill-opacity:1" />
      <path
         d="m 243.83594,198.27739 c 0.68,0.17 20.72,12.32 20.72,12.32 l 29.32,-16.62 -20.11,-12 z"
         fill="#000080"
         id="path106"
         style="fill:#ffffff;fill-opacity:1" />
      <path
         d="m 213.62594,252.98739 c 0,0 -0.22,3.74 0.94,4.78 1.16,1.04 7.39,-1.86 9,-0.83 1.61,1.03 -6.26,8.51 -9,8.93 -2.74,0.42 -5.37,-3.56 -5.37,-3.56 v 5.64 l -3.16,1.8 -2.36,-1.39 0.69,-15.37 z"
         fill="#8787d1"
         id="path108" />
      <path
         d="m 202.94594,255.73739 c 3.32,2.86 6.9,2.77 11,1 3,-5.22 6.46,-37 -1,-42.06 -8,-5.45 -20.41,-4.48 -22.49,-3.88 l -30.5,5 c -2.34,4 3.86,24.84 17.4,25.42 13.54,0.58 22.19,-4.51 22.19,-4.51 z"
         fill="#124577"
         id="path110" />
      <path
         d="m 191.08594,168.58739 a 7.24,7.24 0 0 0 -3.42,3.13 l -0.05,0.11 c -2.15,1.75 -2.48,5 -4.76,6.54 0,0.06 -2.14,1.57 -2.17,1.63 -0.03,0.06 0.21,-2.94 0.2,-2.91 v 0 c -0.74,2 -1.46,4.06 -2.1,6.12 a 1.27,1.27 0 0 0 0.32,0.14 l -0.24,0.12 -0.21,0.12 a 0.69,0.69 0 0 1 -0.41,0.46 1.62,1.62 0 0 0 2.26,1.91 l 6.9,-3.37 a 19.23,19.23 0 0 0 2.7,-0.79 c 0,-0.72 0.11,-1.44 0.18,-2.16 a 6,6 0 0 0 0.46,-5.71 0.65,0.65 0 0 1 0.12,-0.13 v -0.08 a 5.25,5.25 0 0 0 2.17,-3.43 c 0.14,-1.01 -0.85,-2.21 -1.95,-1.7 z"
         fill="#f7931e"
         id="path112" />
      <path
         d="m 182.31594,175.09739 c 0,0 7.86,4.88 8.68,8.95 0,0 -5.52,12 -5.15,12.47 6.24,8.14 -12.47,-5.15 -12.47,-5.15 0,0 3.79,-11.38 8.94,-16.27 z"
         fill="#000080"
         id="path114" />
      <path
         d="m 200.21594,178.08739 c 0.65,5.43 -6.28,13 -9.2,14.45 -4,2 -5.56,-14.64 -23.16,-14.57 -1.14,0 -6.84,-2.43 -9.84,5.07 -3,7.5 0,29 2,32.75 1.76,3.31 13.5,11.25 30.25,2.75 l 0.25,-7.75 c 0,0 9.89,-0.21 15.12,-7.49 4.88,-6.78 7.78,-17 7.32,-22 -3.96,-1.68 -8.85,-4.49 -12.74,-3.21 z"
         fill="#000080"
         id="path116" />
      <path
         d="m 182.31594,175.09739 c 0,0 7.86,4.88 8.68,8.95 0,0 -5.52,12 -5.15,12.47 6.24,8.14 -12.47,-5.15 -12.47,-5.15 0,0 3.79,-11.38 8.94,-16.27 z"
         fill="#8787d1"
         id="path118" />
      <polyline
         points="193.22 110.22 214.1 114.83 210.57 144.11 190.51 137.6"
         fill="#000080"
         id="polyline120"
         transform="translate(-0.32406156,44.277394)"
         style="fill:#ececf9;fill-opacity:1" />
      <path
         d="m 214.44594,171.46739 a 1.67,1.67 0 0 0 -2.23,-1.18 1.88,1.88 0 0 0 -0.67,-1.06 1.68,1.68 0 0 0 -1.9,-0.08 1.94,1.94 0 0 0 -0.49,0.39 l -0.1,-0.12 a 1.76,1.76 0 0 0 -1.91,-0.52 1.65,1.65 0 0 0 -0.52,0.38 26.44,26.44 0 0 0 -0.74,-2.83 c -0.28,-0.93 -0.74,-2.64 -1.89,-2.85 -0.75,-0.14 -1.1,0.41 -1.25,1.06 a 2,2 0 0 0 -0.08,1.4 15,15 0 0 0 0.27,1.88 c 0.1,0.88 0.2,1.77 0.28,2.65 v 0 a 0.59,0.59 0 0 0 -0.42,0.16 3.2,3.2 0 0 0 -1.13,3.61 27.62,27.62 0 0 0 2.06,5.35 0.61,0.61 0 0 0 0.85,0.27 l 0.09,0.33 a 0.65,0.65 0 0 0 1.27,-0.07 v -0.12 a 0.62,0.62 0 0 0 0.22,0.11 l 0.05,0.71 c 0.05,0.66 1,0.66 1.24,0.11 l 0.06,0.52 c 0.08,0.73 1.24,0.65 1.27,-0.07 v -0.58 a 0.74,0.74 0 0 0 0.55,-0.28 0.71,0.71 0 0 0 0.46,0.26 0.6,0.6 0 0 0 0.62,0.09 v 0.16 a 0.72,0.72 0 0 0 0.85,0.48 c 0,0.07 0,0.14 0,0.22 0,0.82 1.3,0.93 1.28,0.1 q 0,-2.47 -0.13,-4.94 a 0.62,0.62 0 0 0 0.19,-0.14 c 1.34,-1.32 2.49,-3.54 1.85,-5.4 z m -6.9,-1.24 a 0.42,0.42 0 0 1 0.36,-0.05 0.73,0.73 0 0 0 -0.08,0.16 h -0.39 a 0.53,0.53 0 0 1 0.11,-0.11 z"
         fill="#f7931e"
         id="path122" />
      <path
         d="m 179.78594,162.74739 c 0,0.18 1.09,11.18 -1.37,13.6 -2.46,2.42 -9,1.42 -10.63,-1.23 -1.63,-2.65 -3.61,-6.14 -1.88,-10.24 1.73,-4.1 13.58,-4.83 13.88,-2.13 z"
         fill="#f7931e"
         id="path124" />
      <path
         d="m 200.21594,178.08739 c 0.65,5.43 -6.28,13 -9.2,14.45 -4,2 -5.56,-14.64 -23.16,-14.57 -1.14,0 -6.84,-2.43 -9.84,5.07 -3,7.5 0,29 2,32.75 1.76,3.31 13.5,11.25 30.25,2.75 l 0.25,-7.75 c 0,0 9.89,-0.21 15.12,-7.49 4.88,-6.78 7.78,-17 7.32,-22 -3.96,-1.68 -8.85,-4.49 -12.74,-3.21 z"
         fill="#8787d1"
         id="path126" />
      <path
         d="m 198.83594,208.88739 a 21.67,21.67 0 0 1 -25.39,-8.43 c -0.35,-0.54 -1.22,0 -0.86,0.5 a 22.68,22.68 0 0 0 26.52,8.89 c 0.57,-0.21 0.34,-1.18 -0.27,-0.96 z"
         fill="#124577"
         id="path128" />
      <path
         d="m 188.94594,190.67739 a 16.11,16.11 0 0 0 -3.89,-5.51 c -1.92,-1.75 -4.29,-2.86 -6.29,-4.49 -0.4,-0.33 -1,0.24 -0.58,0.58 1.89,1.54 4.11,2.62 6,4.21 a 15.51,15.51 0 0 1 4.09,5.63 c 0.18,0.47 0.88,0.06 0.67,-0.42 z"
         fill="#124577"
         id="path130" />
      <path
         d="m 182.67594,159.33739 c -0.41,-4.7 -8.28,-5.71 -12.77,-5.35 -4.49,0.36 -8.91,3.78 -10.47,10.79 -1.56,7.01 0.1,6.86 -1.51,10 -1.61,3.14 -4.48,1 -4.84,6.89 -0.36,5.89 2.48,5.28 0.48,8 -2,2.72 -5,2.8 -3.24,7.92 1.76,5.12 21,11.21 26.78,6.29 5.78,-4.92 -1.26,-9.93 -1.62,-13 -0.36,-3.07 1.89,-4.21 1.62,-8.08 -0.27,-3.87 -4.62,-3.64 -3.72,-7.55 l 0.1,-0.45 c -1.5,-0.93 -3.37,-3.74 -1.46,-5 a 2.07,2.07 0 0 1 2.49,0.15 c 0.55,-1.89 1.41,-3.33 3.24,-3.53 0.92,-0.14 5.49,-0.66 4.92,-7.08 z"
         fill="#75361a"
         id="path132" />
      <path
         d="m 196.31594,235.73739 a 1.68,1.68 0 0 0 -2.81,-0.5 18.9,18.9 0 0 1 -8.31,5.28 c -5.61,1.68 -13.75,0.89 -16.7,-4.89 -5.34,-10.46 -0.36,-23.55 -5.92,-33.75 a 11.25,11.25 0 0 0 -4.17,-4.44 c -5,-2.89 -8.36,0.27 -10,4.13 -2.39,5.73 -2.3,12.86 -2.18,19 a 102,102 0 0 0 1.11,14.71 c 0,0 3.43,20.47 30.16,15 a 40.57,40.57 0 0 0 13.13,-4.79 18,18 0 0 0 5.36,-4.64 5.25,5.25 0 0 0 0.33,-5.11 z"
         fill="#000080"
         id="path134" />
      <polygon
         points="260.59,88.72 354.29,141.7 354.29,66.23 260.59,10.3 "
         fill="#000080"
         id="polygon136"
         transform="translate(-0.32406156,44.277394)" />
      <line
         x1="267.48593"
         y1="67.117393"
         x2="267.48593"
         y2="132.30739"
         fill="none"
         stroke="#29abe2"
         stroke-miterlimit="10"
         id="line138"
         style="fill:#ececf9;fill-opacity:1" />
      <line
         x1="283.67593"
         y1="77.247398"
         x2="283.67593"
         y2="142.4274"
         fill="none"
         stroke="#29abe2"
         stroke-miterlimit="10"
         id="line140"
         style="fill:#ececf9;fill-opacity:1" />
      <line
         x1="308.97592"
         y1="92.287392"
         x2="308.97592"
         y2="157.47739"
         fill="none"
         stroke="#29abe2"
         stroke-miterlimit="10"
         id="line142"
         style="fill:#ececf9;fill-opacity:1" />
      <line
         x1="327.26593"
         y1="102.22739"
         x2="327.26593"
         y2="167.40739"
         fill="none"
         stroke="#29abe2"
         stroke-miterlimit="10"
         id="line144"
         style="fill:#ececf9;fill-opacity:1" />
      <line
         x1="343.63593"
         y1="112.8174"
         x2="343.63593"
         y2="178.00739"
         fill="none"
         stroke="#29abe2"
         stroke-miterlimit="10"
         id="line146"
         style="fill:#ececf9;fill-opacity:1" />
      <path
         d="m 268.93594,122.57739 c 0,0 4.14,-20.25 12.45,-16.58 8.82,3.89 0.79,20.58 10.35,25.55 9.25,4.81 6.57,-30.4 17.27,-26.25 9.55,3.71 6,17.93 6,25.2 0,3.36 -1.13,15.81 5.4,17.71 11.44,3.33 6.7,-30.94 21.44,-23.16"
         fill="none"
         stroke="#ffffff"
         stroke-miterlimit="10"
         id="path148" />
      <ellipse
         cx="268.93594"
         cy="122.7174"
         rx="1.79"
         ry="2.1700001"
         fill="#ffffff"
         id="ellipse150" />
      <ellipse
         cx="341.84595"
         cy="125.5374"
         rx="1.79"
         ry="2.1700001"
         fill="#ffffff"
         id="ellipse152" />
      <ellipse
         cx="300.96594"
         cy="112.8174"
         rx="1.79"
         ry="2.1700001"
         fill="#ffffff"
         id="ellipse154" />
      <ellipse
         cx="315.05594"
         cy="127.6974"
         rx="1.79"
         ry="2.1700001"
         fill="#ffffff"
         id="ellipse156" />
    </g>
  </g>
  <metadata
     id="metadata976">
    <rdf:RDF>
      <cc:Work
         rdf:about="">
        <dc:title>PP_</dc:title>
      </cc:Work>
    </rdf:RDF>
  </metadata>
</svg>
