<svg xmlns="http://www.w3.org/2000/svg" viewBox="0 0 1000 1000">
  <path fill="#25d366" d="M500 1000A500 500 0 01500 0a500 500 0 010 1000z"/>
  <path fill="#fff" fill-rule="evenodd" d="M734 267a329 329 0 00-517 397l-47 170 174-46a329 329 0 00390-521zM502 773h-1c-49 0-97-13-139-38l-10-6-103 27 28-101-7-10a273 273 0 11232 128zm149-205c-8-4-48-24-56-26-7-3-13-5-18 4l-26 32c-5 5-10 6-18 2s-35-13-66-41c-25-22-41-49-46-57s0-12 4-17c4-3 8-9 12-14s6-8 8-14c3-5 2-10 0-14l-26-61c-6-16-13-14-18-14h-16c-5 0-14 2-22 10-7 8-28 28-28 68 0 41 29 80 33 85 4 6 58 89 140 124 20 9 35 14 47 18 20 6 38 5 52 3 16-3 48-20 55-39s7-36 5-39c-2-4-7-6-16-10z" clip-rule="evenodd"/>
</svg>