<svg width="2000" height="2000" viewBox="0 0 529 529" xmlns="http://www.w3.org/2000/svg"><g paint-order="stroke markers fill" style="stroke-width:.95399998;stroke:none;stroke-opacity:1;stroke-miterlimit:4;stroke-dasharray:none"><path fill="navy" d="m26 362 117-123 211 125 85-82s2-14-12-14c-15 0 76-16 76-16l-25 104s4-17-8-22c-13-5-112 107-112 107L145 310 28 439Z" style="stroke-width:.95399998;stroke:none;stroke-opacity:1;stroke-miterlimit:4;stroke-dasharray:none" transform="matrix(1.10901 0 0 1.10901 -28.834 -29.389)"/><path fill="#0f0" d="M144 228v-65h61v101z" style="stroke-width:.95399998;stroke:none;stroke-opacity:1;stroke-miterlimit:4;stroke-dasharray:none" transform="matrix(1.10901 0 0 1.10901 -28.834 -29.389)"/><path fill="red" d="M216 269V123h61v180l-61-34V123h61v180z" style="stroke-width:.95399998;stroke:none;stroke-opacity:1;stroke-miterlimit:4;stroke-dasharray:none" transform="matrix(1.10901 0 0 1.10901 -28.834 -29.389)"/><path fill="#0f0" d="M289 309V89h63v256z" style="stroke-width:.95399998;stroke:none;stroke-opacity:1;stroke-miterlimit:4;stroke-dasharray:none" transform="matrix(1.10901 0 0 1.10901 -28.834 -29.389)"/></g></svg>