<?xml version="1.0" encoding="UTF-8" standalone="no"?>
<svg
   xmlns:dc="http://purl.org/dc/elements/1.1/"
   xmlns:cc="http://creativecommons.org/ns#"
   xmlns:rdf="http://www.w3.org/1999/02/22-rdf-syntax-ns#"
   xmlns:svg="http://www.w3.org/2000/svg"
   xmlns="http://www.w3.org/2000/svg"
   xmlns:sodipodi="http://sodipodi.sourceforge.net/DTD/sodipodi-0.dtd"
   xmlns:inkscape="http://www.inkscape.org/namespaces/inkscape"
   width="2000"
   height="369.99899"
   viewBox="0 0 529.16665 97.895569"
   version="1.1"
   id="svg18"
   sodipodi:docname="fundline-text.svg"
   inkscape:version="1.0.2-2 (e86c870879, 2021-01-15)">
  <defs
     id="defs12" />
  <sodipodi:namedview
     id="base"
     pagecolor="#ffffff"
     bordercolor="#666666"
     borderopacity="1.0"
     inkscape:pageopacity="0.0"
     inkscape:pageshadow="2"
     inkscape:zoom="0.35"
     inkscape:cx="855.74428"
     inkscape:cy="560"
     inkscape:document-units="mm"
     inkscape:current-layer="layer1"
     inkscape:document-rotation="0"
     showgrid="false"
     units="px"
     inkscape:showpageshadow="false"
     inkscape:window-width="1920"
     inkscape:window-height="1001"
     inkscape:window-x="-9"
     inkscape:window-y="-9"
     inkscape:window-maximized="1" />
  <metadata
     id="metadata15">
    <rdf:RDF>
      <cc:Work
         rdf:about="">
        <dc:format>image/svg+xml</dc:format>
        <dc:type
           rdf:resource="http://purl.org/dc/dcmitype/StillImage" />
        <dc:title></dc:title>
      </cc:Work>
    </rdf:RDF>
  </metadata>
  <g
     inkscape:label="Layer 1"
     inkscape:groupmode="layer"
     id="layer1">
    <g
       aria-label="FUNDLINE"
       transform="scale(1.0320304,0.96896371)"
       id="text22"
       style="font-style:normal;font-variant:normal;font-weight:normal;font-stretch:normal;font-size:114.473px;line-height:1.25;font-family:Calibri;-inkscape-font-specification:'Calibri, Normal';font-variant-ligatures:normal;font-variant-caps:normal;font-variant-numeric:normal;font-variant-east-asian:normal;fill:#000080;fill-opacity:1;stroke:none;stroke-width:2.86186">
      <path
         d="m 63.64571,18.124499 q 0,1.062003 -0.11179,1.844532 -0.11179,0.782529 -0.391264,1.285583 -0.279475,0.447159 -0.670739,0.670739 -0.33537,0.22358 -0.726634,0.22358 H 35.251091 v 24.593764 h 25.040924 q 0.391264,0 0.726634,0.22358 0.391264,0.167684 0.670739,0.614844 0.279474,0.447159 0.391264,1.229688 0.11179,0.726634 0.11179,1.900427 0,1.062004 -0.11179,1.844533 -0.11179,0.726633 -0.391264,1.229688 -0.279475,0.447159 -0.670739,0.726634 -0.33537,0.223579 -0.726634,0.223579 H 35.251091 v 30.127362 q 0,0.391264 -0.223579,0.782528 -0.22358,0.33537 -0.782529,0.55895 -0.55895,0.167684 -1.453268,0.279474 -0.894319,0.167685 -2.347587,0.167685 -1.341478,0 -2.291691,-0.167685 -0.950214,-0.11179 -1.509163,-0.279474 -0.558949,-0.22358 -0.782529,-0.55895 -0.22358,-0.391264 -0.22358,-0.782528 V 17.900919 q 0,-2.179902 1.117899,-3.018326 1.173793,-0.894318 2.459376,-0.894318 h 32.530843 q 0.391264,0 0.726634,0.223579 0.391264,0.22358 0.670739,0.726634 0.279474,0.503054 0.391264,1.341478 0.11179,0.782529 0.11179,1.844533 z"
         style="font-style:normal;font-variant:normal;font-weight:normal;font-stretch:normal;font-size:114.473px;font-family:Calibri;-inkscape-font-specification:'Calibri, Normal';font-variant-ligatures:normal;font-variant-caps:normal;font-variant-numeric:normal;font-variant-east-asian:normal;fill:#000080;fill-opacity:1;stroke-width:2.86186"
         id="path832" />
      <path
         d="m 132.62004,59.598528 q 0,6.595601 -1.95632,11.793828 -1.90043,5.142333 -5.4777,8.719607 -3.57728,3.577275 -8.71961,5.421808 -5.14233,1.844532 -11.68204,1.844532 -5.980756,0 -10.899509,-1.732743 -4.918753,-1.732742 -8.440133,-5.086437 -3.52138,-3.40959 -5.421807,-8.496028 -1.900427,-5.086437 -1.900427,-11.737933 v -44.88362 q 0,-0.447159 0.223579,-0.782528 0.22358,-0.33537 0.782529,-0.503055 0.558949,-0.223579 1.453268,-0.335369 0.894319,-0.167685 2.347587,-0.167685 1.341478,0 2.291691,0.167685 0.950214,0.11179 1.453268,0.335369 0.558949,0.167685 0.782529,0.503055 0.22358,0.335369 0.22358,0.782528 v 43.709827 q 0,5.030543 1.229688,8.775502 1.229688,3.74496 3.52138,6.260231 2.347586,2.459376 5.589492,3.74496 3.297795,1.229688 7.378125,1.229688 4.19212,0 7.43403,-1.229688 3.2978,-1.229689 5.5336,-3.689065 2.29169,-2.459376 3.46548,-6.092546 1.22969,-3.63317 1.22969,-8.496028 V 15.441542 q 0,-0.447159 0.22358,-0.782528 0.22358,-0.33537 0.78253,-0.503055 0.55895,-0.223579 1.45326,-0.335369 0.95022,-0.167685 2.34759,-0.167685 1.34148,0 2.2358,0.167685 0.95021,0.11179 1.45327,0.335369 0.55895,0.167685 0.78252,0.503055 0.27948,0.335369 0.27948,0.782528 z"
         style="font-style:normal;font-variant:normal;font-weight:normal;font-stretch:normal;font-size:114.473px;font-family:Calibri;-inkscape-font-specification:'Calibri, Normal';font-variant-ligatures:normal;font-variant-caps:normal;font-variant-numeric:normal;font-variant-east-asian:normal;fill:#000080;fill-opacity:1;stroke-width:2.86186"
         id="path834" />
      <path
         d="m 206.34544,82.34776 q 0,1.117899 -0.39126,1.900427 -0.33537,0.782529 -0.95022,1.285584 -0.55895,0.503054 -1.28558,0.726634 -0.72663,0.223579 -1.45327,0.223579 h -3.07422 q -1.45327,0 -2.57117,-0.279474 -1.062,-0.33537 -2.06811,-1.117899 -0.95021,-0.838424 -1.95632,-2.235797 -0.95021,-1.397372 -2.12401,-3.577274 L 167.66616,38.134879 q -1.78864,-3.18601 -3.63317,-6.651495 -1.78864,-3.52138 -3.3537,-6.81918 h -0.11179 q 0.11179,4.024434 0.16769,8.216553 0.0559,4.192119 0.0559,8.328343 v 43.653932 q 0,0.391264 -0.22358,0.782528 -0.22358,0.33537 -0.78253,0.55895 -0.50305,0.167684 -1.39737,0.279474 -0.83842,0.167685 -2.1799,0.167685 -1.34148,0 -2.2358,-0.167685 -0.83842,-0.11179 -1.34148,-0.279474 -0.50305,-0.22358 -0.72663,-0.55895 -0.22358,-0.391264 -0.22358,-0.782528 V 18.124499 q 0,-2.235797 1.22969,-3.186011 1.22969,-0.950213 2.68295,-0.950213 h 4.58339 q 1.62095,0 2.68295,0.279474 1.1179,0.279475 1.95633,0.950214 0.89431,0.614844 1.67684,1.788637 0.83843,1.117899 1.78864,2.850641 l 17.55101,31.748314 q 1.62095,2.906536 3.13011,5.701282 1.50916,2.738851 2.90654,5.421807 1.39737,2.682956 2.73885,5.310017 1.39737,2.571166 2.73885,5.198227 h 0.0559 q -0.11179,-4.415698 -0.16768,-9.166766 0,-4.806963 0,-9.222662 V 15.609227 q 0,-0.391264 0.22358,-0.726634 0.22358,-0.335369 0.72663,-0.558949 0.55895,-0.279474 1.39738,-0.391264 0.89431,-0.11179 2.29169,-0.11179 1.22969,0 2.124,0.11179 0.89432,0.11179 1.39738,0.391264 0.50305,0.22358 0.72663,0.558949 0.22358,0.33537 0.22358,0.726634 z"
         style="font-style:normal;font-variant:normal;font-weight:normal;font-stretch:normal;font-size:114.473px;font-family:Calibri;-inkscape-font-specification:'Calibri, Normal';font-variant-ligatures:normal;font-variant-caps:normal;font-variant-numeric:normal;font-variant-east-asian:normal;fill:#000080;fill-opacity:1;stroke-width:2.86186"
         id="path836" />
      <path
         d="m 281.18874,49.090284 q 0,9.390346 -2.40349,16.433106 -2.40348,6.986865 -7.04276,11.626143 -4.58338,4.583383 -11.29077,6.875075 -6.70739,2.291691 -15.98595,2.291691 h -15.3152 q -1.28559,0 -2.45938,-0.838423 -1.1179,-0.894319 -1.1179,-3.074221 V 17.900919 q 0,-2.179902 1.1179,-3.018326 1.17379,-0.894318 2.45938,-0.894318 h 16.37721 q 9.39034,0 15.87415,2.459376 6.48382,2.403482 10.84362,6.986865 4.4157,4.527488 6.65149,11.011299 2.2917,6.48381 2.2917,14.644469 z m -10.11698,0.391264 q 0,-5.868966 -1.45327,-10.899509 -1.45327,-5.086438 -4.58339,-8.775502 -3.07422,-3.689065 -7.82528,-5.757177 -4.75107,-2.068112 -12.24099,-2.068112 h -9.78161 v 56.286183 h 9.8934 q 6.93097,0 11.68204,-1.732742 4.75106,-1.732743 7.93707,-5.310018 3.18602,-3.577274 4.75107,-8.943187 1.62096,-5.421807 1.62096,-12.799936 z"
         style="font-style:normal;font-variant:normal;font-weight:normal;font-stretch:normal;font-size:114.473px;font-family:Calibri;-inkscape-font-specification:'Calibri, Normal';font-variant-ligatures:normal;font-variant-caps:normal;font-variant-numeric:normal;font-variant-east-asian:normal;fill:#000080;fill-opacity:1;stroke-width:2.86186"
         id="path838" />
      <path
         d="m 333.50636,82.124181 q 0,1.117898 -0.11179,1.900427 -0.11179,0.726634 -0.39126,1.285583 -0.22358,0.503054 -0.61484,0.782529 -0.33537,0.223579 -0.83843,0.223579 h -31.97189 q -1.28558,0 -2.45938,-0.838423 -1.1179,-0.894319 -1.1179,-3.074221 V 15.441542 q 0,-0.447159 0.22358,-0.782528 0.22358,-0.33537 0.78253,-0.503055 0.55895,-0.223579 1.50916,-0.335369 0.95022,-0.167685 2.2917,-0.167685 1.39737,0 2.29169,0.167685 0.95021,0.11179 1.50916,0.335369 0.55895,0.167685 0.78253,0.503055 0.22358,0.335369 0.22358,0.782528 v 62.546415 h 25.93524 q 0.50306,0 0.83843,0.279474 0.39126,0.22358 0.61484,0.726634 0.27947,0.447159 0.39126,1.229688 0.11179,0.782529 0.11179,1.900428 z"
         style="font-style:normal;font-variant:normal;font-weight:normal;font-stretch:normal;font-size:114.473px;font-family:Calibri;-inkscape-font-specification:'Calibri, Normal';font-variant-ligatures:normal;font-variant-caps:normal;font-variant-numeric:normal;font-variant-east-asian:normal;fill:#000080;fill-opacity:1;stroke-width:2.86186"
         id="path840" />
      <path
         d="m 353.74035,84.863032 q 0,0.447159 -0.22358,0.782528 -0.22358,0.33537 -0.78253,0.55895 -0.55895,0.167684 -1.50916,0.279474 -0.89432,0.167685 -2.29169,0.167685 -1.34148,0 -2.2917,-0.167685 -0.95021,-0.11179 -1.50916,-0.279474 -0.55895,-0.22358 -0.78253,-0.55895 -0.22358,-0.335369 -0.22358,-0.782528 v -69.42149 q 0,-0.447159 0.22358,-0.782528 0.27948,-0.33537 0.83843,-0.503055 0.61484,-0.223579 1.50916,-0.335369 0.95021,-0.167685 2.2358,-0.167685 1.39737,0 2.29169,0.167685 0.95021,0.11179 1.50916,0.335369 0.55895,0.167685 0.78253,0.503055 0.22358,0.335369 0.22358,0.782528 z"
         style="font-style:normal;font-variant:normal;font-weight:normal;font-stretch:normal;font-size:114.473px;font-family:Calibri;-inkscape-font-specification:'Calibri, Normal';font-variant-ligatures:normal;font-variant-caps:normal;font-variant-numeric:normal;font-variant-east-asian:normal;fill:#000080;fill-opacity:1;stroke-width:2.86186"
         id="path842" />
      <path
         d="m 427.63342,82.34776 q 0,1.117899 -0.39126,1.900427 -0.33537,0.782529 -0.95022,1.285584 -0.55895,0.503054 -1.28558,0.726634 -0.72664,0.223579 -1.45327,0.223579 h -3.07422 q -1.45327,0 -2.57117,-0.279474 -1.062,-0.33537 -2.06811,-1.117899 -0.95021,-0.838424 -1.95632,-2.235797 -0.95021,-1.397372 -2.12401,-3.577274 L 388.95414,38.134879 q -1.78864,-3.18601 -3.63317,-6.651495 -1.78864,-3.52138 -3.3537,-6.81918 h -0.11179 q 0.11179,4.024434 0.16769,8.216553 0.0559,4.192119 0.0559,8.328343 v 43.653932 q 0,0.391264 -0.22358,0.782528 -0.22358,0.33537 -0.78253,0.55895 -0.50305,0.167684 -1.39737,0.279474 -0.83842,0.167685 -2.1799,0.167685 -1.34148,0 -2.2358,-0.167685 -0.83842,-0.11179 -1.34148,-0.279474 -0.50305,-0.22358 -0.72663,-0.55895 -0.22358,-0.391264 -0.22358,-0.782528 V 18.124499 q 0,-2.235797 1.22969,-3.186011 1.22969,-0.950213 2.68295,-0.950213 h 4.58339 q 1.62095,0 2.68295,0.279474 1.1179,0.279475 1.95633,0.950214 0.89431,0.614844 1.67684,1.788637 0.83843,1.117899 1.78864,2.850641 l 17.551,31.748314 q 1.62096,2.906536 3.13012,5.701282 1.50916,2.738851 2.90654,5.421807 1.39737,2.682956 2.73885,5.310017 1.39737,2.571166 2.73885,5.198227 h 0.0559 q -0.11179,-4.415698 -0.16768,-9.166766 0,-4.806963 0,-9.222662 V 15.609227 q 0,-0.391264 0.22358,-0.726634 0.22358,-0.335369 0.72663,-0.558949 0.55895,-0.279474 1.39737,-0.391264 0.89432,-0.11179 2.2917,-0.11179 1.22968,0 2.124,0.11179 0.89432,0.11179 1.39738,0.391264 0.50305,0.22358 0.72663,0.558949 0.22358,0.33537 0.22358,0.726634 z"
         style="font-style:normal;font-variant:normal;font-weight:normal;font-stretch:normal;font-size:114.473px;font-family:Calibri;-inkscape-font-specification:'Calibri, Normal';font-variant-ligatures:normal;font-variant-caps:normal;font-variant-numeric:normal;font-variant-east-asian:normal;fill:#000080;fill-opacity:1;stroke-width:2.86186"
         id="path844" />
      <path
         d="m 487.10563,82.34776 q 0,1.006109 -0.11179,1.788638 -0.11179,0.726634 -0.39127,1.229688 -0.27947,0.503054 -0.67074,0.726634 -0.33537,0.223579 -0.78252,0.223579 h -34.71075 q -1.28558,0 -2.45938,-0.838423 -1.11789,-0.894319 -1.11789,-3.074221 V 17.900919 q 0,-2.179902 1.11789,-3.018326 1.1738,-0.894318 2.45938,-0.894318 h 34.31948 q 0.44716,0 0.78253,0.223579 0.39126,0.22358 0.61484,0.726634 0.22358,0.503054 0.33537,1.285583 0.16769,0.726634 0.16769,1.844533 0,1.006108 -0.16769,1.788637 -0.11179,0.726634 -0.33537,1.229688 -0.22358,0.44716 -0.61484,0.670739 -0.33537,0.22358 -0.78253,0.22358 h -28.28283 v 22.693337 h 24.2584 q 0.44716,0 0.78253,0.279475 0.39126,0.223579 0.61484,0.670739 0.27947,0.447159 0.39126,1.229688 0.11179,0.782529 0.11179,1.844532 0,1.006109 -0.11179,1.732743 -0.11179,0.726634 -0.39126,1.173793 -0.22358,0.447159 -0.61484,0.670739 -0.33537,0.167685 -0.78253,0.167685 h -24.2584 v 25.879347 h 28.6741 q 0.44715,0 0.78252,0.22358 0.39127,0.223579 0.67074,0.726634 0.27948,0.447159 0.39127,1.229688 0.11179,0.726634 0.11179,1.844532 z"
         style="font-style:normal;font-variant:normal;font-weight:normal;font-stretch:normal;font-size:114.473px;font-family:Calibri;-inkscape-font-specification:'Calibri, Normal';font-variant-ligatures:normal;font-variant-caps:normal;font-variant-numeric:normal;font-variant-east-asian:normal;fill:#000080;fill-opacity:1;stroke-width:2.86186"
         id="path846" />
    </g>
  </g>
</svg>
