<svg xmlns="http://www.w3.org/2000/svg" viewBox="0 0 265.2 54.6">
  <defs>
    <clipPath id="clip-path" transform="translate(-11.2 -20.6)">
      <path d="M0 0h287.7v95.9H0z" style="fill:none"/>
    </clipPath>
    <style>
      .cls-3,.cls-4{fill:#f48120;fill-rule:evenodd}.cls-4{fill:#27377b}
    </style>
  </defs>
  <title>Asset 2</title>
  <g id="Layer_2" data-name="Layer 2">
    <g id="Layer_1-2" data-name="Layer 1" style="clip-path:url(#clip-path)">
      <path d="M261.1 49.6a2 2 0 0 1 .3-1.2l.7-.7 1-.3a2 2 0 0 1 1.3.5 2 2 0 0 1 .6 1.3h-1l-.2-.7-.7-.2-.7.2-.4.7v.4q.1.4 1.2.8l1.5.8a2 2 0 0 1 .4 1.5 2 2 0 0 1-.8 1.4 2 2 0 0 1-1.3.5 2 2 0 0 1-1.6-.7 2 2 0 0 1-.6-1.5h1a1 1 0 0 0 .3 1 1 1 0 0 0 1 .4l.7-.4a1 1 0 0 0 .4-.8l-.3-.8-.8-.5q-1.9-.5-2-1.7m-8 1.4a4 4 0 0 1 .5-1.9 4 4 0 0 1 1.3-1.2 4 4 0 0 1 1.7-.5 4 4 0 0 1 2 .5 3 3 0 0 1 1.6 1.7H259l-.7-.7-.8-.5h-1a3 3 0 0 0-2 .8 3 3 0 0 0-.6 1.8 3 3 0 0 0 .7 1.9 3 3 0 0 0 2 .8l1.4-.4 1-.9h1a4 4 0 0 1-5.2 1.7 4 4 0 0 1-1.4-1.2 3 3 0 0 1-.5-1.8Zm-2.3-5.9h1v1.6h-1Zm0 2.5h1v6.8h-1Zm-5.2 2a2 2 0 0 1 .3-1.2l.7-.7 1-.3a2 2 0 0 1 1.3.5 2 2 0 0 1 .6 1.3h-1l-.2-.7-.7-.2-.7.2-.4.7v.4q.2.4 1.2.8l1.5.8a2 2 0 0 1 .4 1.5 2 2 0 0 1-.7 1.4 2 2 0 0 1-1.4.5 2 2 0 0 1-1.6-.7 2 2 0 0 1-.6-1.5h1a1 1 0 0 0 .4 1l.8.4.9-.4.3-.8-.2-.8-.9-.5q-1.8-.5-2-1.7m-7.6 1.2a3 3 0 0 0 1.7 2.7l1 .2a3 3 0 0 0 2-.8 3 3 0 0 0 .8-1.9 3 3 0 0 0-.8-1.9 3 3 0 0 0-1.9-.8 2 2 0 0 0-1.4.4l-1 1zm-1 .2a4 4 0 0 1 .5-1.9 4 4 0 0 1 1.4-1.3 4 4 0 0 1 1.8-.4 3 3 0 0 1 2.7 1.5v-1.3h.9v6.8h-1v-1.3a3 3 0 0 1-1 1.1 3 3 0 0 1-1.7.4 4 4 0 0 1-1.7-.5 4 4 0 0 1-1.4-1.2 3 3 0 0 1-.5-1.8m-5.8-1.1v3.6h1.7q2.3 0 2.3-1.9a2 2 0 0 0-.7-1.3 3 3 0 0 0-1.8-.4Zm0-4v3.1h1.5a3 3 0 0 0 1.4-.4 1 1 0 0 0 .6-1.2 1 1 0 0 0-.6-1.1 3 3 0 0 0-1.4-.4Zm1.5-.9a3 3 0 0 1 2.1.7 2.3 2.3 0 0 1-.1 3.7 2.4 2.4 0 0 1 1.5 2.4 2 2 0 0 1-.9 1.8 3 3 0 0 1-2.1.7h-3v-9.2Zm-8.2 5.4a3 3 0 0 0-1-1.6 3 3 0 0 0-1.7-.6 3 3 0 0 0-1.5.4l-.8 1-.3.8Zm-6.2.4a3 3 0 0 1 1-2.5 3.5 3.5 0 0 1 4.2-.6 3 3 0 0 1 1.3 1.3 4 4 0 0 1 .6 2v.3h-6.2a2 2 0 0 0 .9 1.7 3 3 0 0 0 1.7.6 3 3 0 0 0 1.5-.4 2 2 0 0 0 1-1h1l-1 1.3-1.1.8-1.4.2a4 4 0 0 1-1.7-.5 3 3 0 0 1-1.4-1.3 4 4 0 0 1-.5-1.8m-7.4 3.4v-9.2h1v3.3a2 2 0 0 1 2-1l1.5.3a3 3 0 0 1 1.2 1 3 3 0 0 1 .4 1.7v4h-1v-4l-.2-1.2-.8-.7-1-.3a2 2 0 0 0-1.5.6 2 2 0 0 0-.6 1.5v4Zm-3.4 0v-6H206v-.8h1.5V45h1v2.5h1.5v.8h-1.6v6Zm-12 0v-6.8h1v1l.9-1 1.2-.2a3 3 0 0 1 3 3.1v3.9h-.8v-3.8a2 2 0 0 0-.6-1.7 2 2 0 0 0-1.6-.6 2 2 0 0 0-1.4.6 2 2 0 0 0-.6 1.5v4Zm-2.4-9.3h1v1.6h-1Zm0 2.5h1v6.8h-1Zm-5.7 2.9a3 3 0 0 0-.9-1.6 3 3 0 0 0-1.7-.6 3 3 0 0 0-1.5.4l-.8 1-.3.8Zm-6.2.4a3 3 0 0 1 1.1-2.5 3.5 3.5 0 0 1 4.2-.6 3 3 0 0 1 1.3 1.3 4 4 0 0 1 .5 2v.3h-6.1a2 2 0 0 0 .8 1.7 3 3 0 0 0 1.7.6 3 3 0 0 0 1.5-.4 2 2 0 0 0 1-1h1l-.8 1.3-1.3.8-1.3.2a4 4 0 0 1-1.8-.5 3 3 0 0 1-1.2-1.3 4 4 0 0 1-.5-1.8m-4.5 3.4-2.9-6.8h1l2.4 5.6 2.4-5.6h1l-3 6.8Zm-4.4-4a3 3 0 0 0-.9-1.5 3 3 0 0 0-1.7-.6 3 3 0 0 0-1.5.4l-.9 1-.3.8Zm-6.2.5a3 3 0 0 1 1.1-2.5 3.5 3.5 0 0 1 4.1-.6 3 3 0 0 1 1.4 1.3 4 4 0 0 1 .5 2v.3h-6.2a2 2 0 0 0 1 1.7 3 3 0 0 0 1.6.6 3 3 0 0 0 1.5-.4 2 2 0 0 0 1-1h1l-.9 1.3-1.2.8-1.3.2a4 4 0 0 1-1.8-.5 3 3 0 0 1-1.3-1.3 4 4 0 0 1-.4-1.8m-2.3-5.8h1v1.6h-1Zm0 2.4h1v6.9h-1Zm-2.5-2.4h1v9.3h-1Zm-2.1 5.3a3 3 0 0 0-1-1.5 3 3 0 0 0-1.7-.7 3 3 0 0 0-1.5.5l-.8 1-.3.8Zm-6.2.5a3 3 0 0 1 1-2.6 3.5 3.5 0 0 1 4.2-.5 3 3 0 0 1 1.3 1.3 4 4 0 0 1 .6 2v.1H154a2 2 0 0 0 .9 1.8 3 3 0 0 0 1.7.6l1.4-.4a2 2 0 0 0 1-1h1l-.8 1.3-1.3.8-1.3.2a4 4 0 0 1-1.7-.5 3 3 0 0 1-1.3-1.3 4 4 0 0 1-.5-1.8m-5.8-1v3.7h1.6q2.4 0 2.3-2a2 2 0 0 0-.6-1.2 3 3 0 0 0-1.8-.5Zm0-4v3.2h1.5a3 3 0 0 0 1.4-.4 1 1 0 0 0 .6-1.3 1 1 0 0 0-.6-1 3 3 0 0 0-1.4-.4Zm1.4-.8a3 3 0 0 1 2.2.7 2.3 2.3 0 0 1-.2 3.6 3 3 0 0 1 1.1 1 3 3 0 0 1 .4 1.5 2 2 0 0 1-.8 1.7 3 3 0 0 1-2.2.8h-2.9V45Z" class="cls-3"/>
      <path d="M246.8 19.9a8 8 0 0 1 1-5.3 8 8 0 0 1 3.4-3.3 9 9 0 0 1 4.2-1.1 9 9 0 0 1 6 2.1 8 8 0 0 1 2.8 6.2H260a4 4 0 0 0-1.4-3.3 5 5 0 0 0-3.2-1 5 5 0 0 0-3.1 1 4 4 0 0 0-1.6 3.2q.2.4.2.9l.2.7q.5 1.8 5 3.5a23 23 0 0 1 7 3.6q2.5 2 1.8 7a8 8 0 0 1-3.5 6.3 11 11 0 0 1-6.2 2 9 9 0 0 1-7-2.9 10 10 0 0 1-2.6-6.8l4.1-.1a6 6 0 0 0 1.8 4.2 6 6 0 0 0 4 1.8 6 6 0 0 0 3.6-1.7 5 5 0 0 0 1.6-3.7 5 5 0 0 0-1.2-3.5 7 7 0 0 0-3.8-2.1q-8.3-2.2-9-7.7M214 29.2V11h4.2v17.7a9.3 9.3 0 0 0 16 7q2.8-2.8 2.8-8V11h4.1v30.8h-3.8v-4.9a10 10 0 0 1-4.1 4.2 13 13 0 0 1-6 1.5 13 13 0 0 1-9.2-3.6 12 12 0 0 1-4-9.7m-28.3 12.5V0h4.2v29.2L204 11h5.2l-11.8 15.5L210 41.7h-5.4l-10-12.2-5 6.3v5.9Zm-28.2 0V0h4.1v29.2L175.7 11h5.3l-12 15.5L182 41.7h-5.4l-10-12.2-5 6.4v5.8Zm-35.5-16.2a12 12 0 0 0 7.3 11.9 14 14 0 0 0 4.6 1 12 12 0 0 0 8.9-3.7 12 12 0 0 0 3.5-8.2 12 12 0 0 0-3.4-8.6 12 12 0 0 0-8.5-3.7 11 11 0 0 0-6.3 1.6 13 13 0 0 0-4.5 4.5 10 10 0 0 0-1.6 5.2m-4.3 1a16 16 0 0 1 2.5-8.7 17 17 0 0 1 6.1-5.8 16 16 0 0 1 8-1.9q8.4.2 12 6.8v-6h4v30.8h-4v-5.9a12 12 0 0 1-5.1 5 14 14 0 0 1-7.3 1.6 17 17 0 0 1-7.9-2.1 16 16 0 0 1-6-5.6 15 15 0 0 1-2.3-8.2m-33.3-1.2a14 14 0 0 0 3.2 9.3q3.1 3.8 9.7 3.8a11 11 0 0 0 8.1-3.6 13 13 0 0 0 3.4-9.2A10 10 0 0 0 107 20a12 12 0 0 0-4.7-4.2 13 13 0 0 0-5.9-1.5 11 11 0 0 0-5.2 1.2 13 13 0 0 0-4.8 3.8 10 10 0 0 0-2 6m-4 16.5V0h4.3v16.7a13 13 0 0 1 4.7-4.6 15 15 0 0 1 7-2 16 16 0 0 1 8.4 2.2 17 17 0 0 1 6 5.7 14 14 0 0 1 2.2 7.1 18 18 0 0 1-.9 6.4 17 17 0 0 1-3 5.5 15 15 0 0 1-5 3.9 17 17 0 0 1-14.4 0 12 12 0 0 1-5.3-4.6v5.4ZM56.1 4.8l-8.2 19h16.2ZM53.8 0h4.6l17.9 41.7h-4.5l-6.2-14H46.4l-6 14h-4.6Z" class="cls-4"/>
      <path d="M32.5 36.1c-1.6-9.4-12.8-10.7-13.6-18.3-2.5-11.8 14.8-18.1 20-5-3.6-3.3-7.7-3.2-11.3.1C20 24 34 25.2 32.5 36.2m8-20.6C38.3-1.4 17 2.3 17.2 16c1 10.7 11.8 10.7 14 18.5.8 6.6-6.3 8.2-9.7 5.3-4.9-5.2 4.4-9.9 5.8-2.5 1.2-5-4.9-6.7-7.5-3.3a5 5 0 0 0 .4 6.2c-2.9 0-4 1-5 2.4a12 12 0 0 1 7.4-.8q7.6 2.8 10.6-5c2-7.6-4.4-12-6.1-15.7-2.7-7.7 7.4-13.2 13.3-5.4M3.4 17q5-4.7 9.6-3.8c-3.7-2-7.5-1-9.6 3.9M13.9 8.3a5 5 0 0 1-.2 2.3l-.9 2c-.9-2.2-.2-3.4 1.1-4.3M14.6 7.6c1.6 1.2 2.8 3.3.8 5.8a6 6 0 0 0-.3-2.5zM8.2 19.5c-1.8.8-3.7.8-4.8-2a6 6 0 0 0 2.1.8zM15.5 25A7 7 0 0 1 8.8 24c-2-1.7-5.7-2.6-7.2 1 2-2.6 4.4-1.7 6.4.2a6 6 0 0 0 7.5 0M14.9 40.9c-3.5-1.3-6.6-1.5-9 1 1.8-4.5 5.6-4 9-1" class="cls-3"/>
      <path d="M14.7 40c-3.4-7.1.2-11.4 7-11q-8.7 1.5-7 11" class="cls-3"/>
      <path d="M1.8 24c-.5-1.9-1.4-1.5-1.7.2-.3 2.2 1.3 3.3 1.7 1Q1 25 1 24.3c0-.6.5-.5.8-.5" class="cls-4"/>
    </g>
  </g>
</svg>
