<svg width="257" height="41" viewBox="0 0 257 41" xmlns="http://www.w3.org/2000/svg"><g fill="#FFF" fill-rule="evenodd"><path d="M46 41H31.69L23 25h14.308z"/><path d="M23.62 0L31 12.378 14.693 40H0zm65.822 14.76c-.301-.496-.663-.861-1.083-1.095-.42-.236-.943-.35-1.574-.35-.707 0-1.249.162-1.622.49-.373.328-.56.74-.56 1.237 0 .83.595 1.422 1.788 1.77l1.673.503c1.35.401 2.344.962 2.981 1.678.635.718.955 1.572.955 2.564 0 .63-.121 1.217-.366 1.759a3.976 3.976 0 01-1.042 1.408 4.99 4.99 0 01-1.643.935c-.642.229-1.356.341-2.143.341-1.59 0-2.84-.36-3.758-1.086-.92-.722-1.468-1.768-1.652-3.137l2.439-.46c.142.897.469 1.565.976 1.999.501.437 1.169.654 1.995.654.85 0 1.508-.21 1.968-.633.458-.422.689-.968.689-1.639 0-.362-.061-.67-.178-.925a2.077 2.077 0 00-.502-.673 2.938 2.938 0 00-.768-.494 8.943 8.943 0 00-.954-.363l-1.613-.482c-1.153-.348-2.005-.832-2.559-1.458-.55-.622-.826-1.376-.826-2.261 0-.55.112-1.055.334-1.518.224-.463.544-.859.957-1.186.41-.329.903-.586 1.473-.775a6.184 6.184 0 011.921-.281c1.204 0 2.187.224 2.948.675a4.298 4.298 0 011.713 1.818l-1.967.985zM76.575 25.74h2.498V11.523h-2.498V25.74zm-10.151-7.442l-4.683-6.775h2.871l3.268 4.907 3.285-4.907h2.833l-4.74 6.797 5.135 7.42h-2.874l-3.7-5.468-3.737 5.468H61.19l5.234-7.442zm-15.995 2.234h5.017l-2.458-4.868-2.559 4.868zm6.02 2.01h-7.063l-1.711 3.198H45L53.006 11l7.85 14.74h-2.714l-1.693-3.197zm51.249-2.505a21.85 21.85 0 01-.788-1.537 31.448 31.448 0 01-.731-1.677 34.65 34.65 0 01-.28 2.27 40.087 40.087 0 01-.401 2.168l-.918 4.398H102L105.24 11 111 21.18 116.758 11 120 25.66h-2.58l-.92-4.399a44.99 44.99 0 01-.41-2.168 28.153 28.153 0 01-.29-2.27 33.5 33.5 0 01-1.503 3.214L111.001 26l-3.303-5.963zm18.007 2.702c.679.678 1.61 1.018 2.794 1.018 1.188 0 2.117-.34 2.798-1.018.676-.678 1.015-1.635 1.015-2.867V11H135v8.956c0 .912-.143 1.74-.435 2.482a5.188 5.188 0 01-1.26 1.9c-.548.526-1.232.935-2.04 1.226-.812.29-1.736.436-2.766.436-1.045 0-1.967-.145-2.771-.436-.806-.291-1.482-.7-2.035-1.225a5.214 5.214 0 01-1.258-1.901c-.29-.742-.435-1.57-.435-2.482V11h2.69v8.872c0 1.232.337 2.189 1.015 2.867M136 11h12v2.1h-4.679V25h-2.642V13.1H136zm16.708 11.739c.678.678 1.608 1.018 2.793 1.018 1.186 0 2.118-.34 2.796-1.018.676-.678 1.015-1.635 1.015-2.867V11H162v8.956c0 .912-.143 1.74-.435 2.482a5.214 5.214 0 01-1.258 1.9c-.55.526-1.231.935-2.042 1.226-.812.29-1.734.436-2.764.436-1.045 0-1.97-.145-2.773-.436-.804-.291-1.482-.7-2.032-1.225a5.22 5.22 0 01-1.261-1.901c-.29-.742-.435-1.57-.435-2.482V11h2.69v8.872c0 1.232.337 2.189 1.018 2.867m15.771-2.039h5.061l-2.48-4.953-2.581 4.953zm6.074 2.047h-7.125L165.7 26H163l8.079-15L179 26h-2.74l-1.707-3.253zM181 11h2.34v11.9H189V25h-8zm18 0h9v2.1h-6.467v3.703h5.887v2.098h-5.887V25H199zm14.708 11.739c.678.678 1.61 1.018 2.793 1.018 1.186 0 2.118-.34 2.796-1.018.676-.678 1.015-1.635 1.015-2.867V11H223v8.956c0 .912-.143 1.74-.435 2.482a5.182 5.182 0 01-1.258 1.9c-.55.526-1.231.935-2.042 1.226-.812.29-1.734.436-2.764.436-1.045 0-1.97-.145-2.773-.436-.804-.291-1.482-.7-2.032-1.225a5.22 5.22 0 01-1.261-1.901c-.29-.742-.435-1.57-.435-2.482V11h2.69v8.872c0 1.232.337 2.189 1.018 2.867m14.89-6.565v9.347H226V11l12.402 9.826v-9.428H241V26zm20.52 6.726c.827 0 1.564-.115 2.215-.346a4.554 4.554 0 001.645-.991c.446-.428.788-.95 1.024-1.565a5.663 5.663 0 00.357-2.049c0-.74-.12-1.41-.357-2.008a4.207 4.207 0 00-1.024-1.537 4.56 4.56 0 00-1.645-.97c-.651-.223-1.388-.336-2.215-.336h-2.54V22.9h2.54zM244 11h5.178c1.181 0 2.253.172 3.22.515.968.343 1.79.822 2.47 1.435a6.425 6.425 0 011.573 2.197c.371.85.559 1.785.559 2.802 0 1.03-.188 1.976-.559 2.843a6.582 6.582 0 01-1.574 2.237c-.679.627-1.496 1.111-2.457 1.454-.962.343-2.039.517-3.232.517H244V11z"/></g></svg>