<?xml version="1.0" encoding="utf-8"?>
<!-- Generator: Adobe Illustrator 18.0.0, SVG Export Plug-In . SVG Version: 6.00 Build 0)  -->
<!DOCTYPE svg PUBLIC "-//W3C//DTD SVG 1.1//EN" "http://www.w3.org/Graphics/SVG/1.1/DTD/svg11.dtd">
<svg version="1.1" id="Layer_1" xmlns="http://www.w3.org/2000/svg" xmlns:xlink="http://www.w3.org/1999/xlink" x="0px" y="0px"
	 viewBox="0 0 253.3 37.5" enable-background="new 0 0 253.3 37.5" xml:space="preserve">
<g>
	<path fill-rule="evenodd" clip-rule="evenodd" d="M134.6,9.8h4.3c2,0,3.3-1.1,3.3-2.8V6.9c0-1.8-1.2-2.8-3.4-2.8h-4.2V9.8
		L134.6,9.8z M142,19.1l-4-6h-3.5v6h-3.8V0.7h8.4c2.3,0,4.1,0.6,5.3,1.9c1,1,1.6,2.5,1.6,4.2v0.1c0,2.7-1.4,4.7-3.9,5.6l-0.2,0.1
		l4.5,6.6H142z"/>
	<path fill-rule="evenodd" clip-rule="evenodd" d="M158.4,3.9c-3.3,0-5.8,2.6-5.8,6v0c0,3.4,2.5,6,5.8,6c3.3,0,5.7-2.6,5.7-6V9.9
		C164.2,6.5,161.7,3.9,158.4,3.9L158.4,3.9z M158.4,19.4c-5.6,0-9.8-4.1-9.8-9.4V9.9c0-5.3,4.3-9.5,9.8-9.5c5.6,0,9.7,4.1,9.7,9.5v0
		C168.2,15.2,163.9,19.4,158.4,19.4z"/>
	<path fill-rule="evenodd" clip-rule="evenodd" d="M176.4,8.3h3.9c2.6,0,3.1-1.2,3.1-2.1V6.1c0-1.3-1-2.1-2.8-2.1h-4.2V8.3
		L176.4,8.3z M176.4,15.8h5c2.5,0,3.1-1.2,3.1-2.2v-0.1c0-1-0.5-2.2-3.2-2.2h-4.9V15.8L176.4,15.8z M172.7,19.1V0.7h8.5
		c2.1,0,3.7,0.6,4.8,1.6c0.8,0.8,1.2,1.8,1.2,3.1v0.1c0,1.7-0.8,3-2.4,3.9l-0.3,0.2l0.3,0.1c2.4,0.9,3.4,2.2,3.4,4.5v0
		c0,3.2-2.5,5-6.8,5H172.7z"/>
	<polygon fill-rule="evenodd" clip-rule="evenodd" points="193.6,19.1 193.6,8.2 207.4,8.2 207.4,11.5 197.4,11.5 197.4,15.7 
		207.4,15.7 207.4,19.1 	"/>
	<path fill-rule="evenodd" clip-rule="evenodd" d="M221.9,19.4c-5.4,0-9.4-4.1-9.4-9.5V9.9c0-5.4,4.1-9.5,9.6-9.5
		c3,0,5.2,0.8,7.2,2.7l-2.4,2.8c-1.6-1.4-3.1-2-4.8-2c-3.2,0-5.6,2.6-5.6,6v0c0,3.4,2.4,6,5.6,6c2.1,0,3.4-0.8,4.9-2.1l2.4,2.4
		C227.2,18.5,225,19.4,221.9,19.4z"/>
	<path fill-rule="evenodd" clip-rule="evenodd" d="M242.4,3.9c-3.3,0-5.7,2.6-5.7,6v0c0,3.4,2.6,6,5.8,6c3.3,0,5.7-2.6,5.7-6V9.9
		C248.2,6.5,245.7,3.9,242.4,3.9L242.4,3.9z M242.4,19.4c-5.6,0-9.7-4.1-9.7-9.4V9.9c0-5.3,4.3-9.5,9.8-9.5c5.6,0,9.8,4.1,9.8,9.5v0
		C252.3,15.2,247.9,19.4,242.4,19.4z"/>
	<rect x="193.6" y="0.7" fill-rule="evenodd" clip-rule="evenodd" fill="#009AB6" width="13.8" height="3.4"/>
	<path fill-rule="evenodd" clip-rule="evenodd" fill="#009AB6" d="M9.7,19.3c-5.4,0-9.4-4.1-9.4-9.4V9.8c0-5.4,4.1-9.5,9.6-9.5
		c3,0,5.2,0.8,7.2,2.7l-2.4,2.8c-1.6-1.4-3.1-2-4.8-2c-3.1,0-5.6,2.6-5.6,6v0.1c0,3.4,2.4,6,5.6,6c2.1,0,3.4-0.8,4.9-2.1l2.4,2.4
		C15,18.3,12.8,19.3,9.7,19.3z"/>
	<path fill-rule="evenodd" clip-rule="evenodd" fill="#009AB6" d="M26.2,11.4h5.4l-2.7-6.6L26.2,11.4L26.2,11.4z M34.6,18.9
		l-1.7-4.2h-8.1l-1.7,4.2h-3.9l7.9-18.5h3.6l7.9,18.5H34.6z"/>
	<polygon fill-rule="evenodd" clip-rule="evenodd" fill="#009AB6" points="54.9,18.9 45.6,6.8 45.6,18.9 41.8,18.9 41.8,0.6 
		45.4,0.6 54.4,12.3 54.4,0.6 58.1,0.6 58.1,18.9 	"/>
	<path fill-rule="evenodd" clip-rule="evenodd" fill="#009AB6" d="M68.3,11.4h5.4L71,4.8L68.3,11.4L68.3,11.4z M76.8,18.9l-1.7-4.2
		H67l-1.7,4.2h-3.9l7.9-18.5h3.6l7.9,18.5H76.8z"/>
	<path fill-rule="evenodd" clip-rule="evenodd" fill="#009AB6" d="M86.7,9.6h4.3c2,0,3.3-1.1,3.3-2.8V6.8C94.3,5,93.1,4,91,4h-4.2
		V9.6L86.7,9.6z M94.2,18.9l-4-6h-3.5v6h-3.8V0.6h8.4c2.3,0,4.1,0.6,5.3,1.8c1,1,1.6,2.5,1.6,4.2v0.1c0,2.7-1.4,4.7-3.9,5.6
		l-0.2,0.1l4.5,6.6H94.2z"/>
	<path fill-rule="evenodd" clip-rule="evenodd" fill="#009AB6" d="M107.6,11.4h5.4l-2.7-6.6L107.6,11.4L107.6,11.4z M116.1,18.9
		l-1.7-4.2h-8.1l-1.7,4.2h-3.9l7.9-18.5h3.6l7.9,18.5H116.1z"/>
	<polygon fill-rule="evenodd" clip-rule="evenodd" fill="#009AB6" points="151.7,23.5 154,23.5 157,32.3 159.9,23.5 162.3,23.5 
		164.4,36.1 162.1,36.1 160.7,28.1 158,36.1 155.9,36.1 153.2,28.1 151.8,36.1 149.5,36.1 	"/>
	<path fill-rule="evenodd" clip-rule="evenodd" fill="#009AB6" d="M166.1,26.8h2.4v4.5c0,0.9,0.1,1.5,0.2,1.8
		c0.1,0.3,0.3,0.6,0.6,0.8c0.3,0.2,0.6,0.3,1,0.3c0.4,0,0.7-0.1,1-0.3c0.3-0.2,0.5-0.5,0.6-0.8c0.1-0.3,0.1-0.8,0.1-1.7v-4.6h2.4v4
		c0,1.6-0.1,2.8-0.4,3.4c-0.3,0.7-0.8,1.3-1.4,1.7c-0.6,0.4-1.4,0.6-2.3,0.6c-1,0-1.9-0.2-2.5-0.7c-0.6-0.5-1.1-1.1-1.3-1.9
		c-0.2-0.6-0.3-1.6-0.3-3.1V26.8z"/>
	<polygon fill-rule="evenodd" clip-rule="evenodd" fill="#009AB6" points="176.9,23.3 179.3,23.3 179.3,26.8 180.7,26.8 180.7,28.8 
		179.3,28.8 179.3,36.1 176.9,36.1 176.9,28.8 175.7,28.8 175.7,26.8 176.9,26.8 	"/>
	<path fill-rule="evenodd" clip-rule="evenodd" fill="#009AB6" d="M181.9,26.8h2.4v4.5c0,0.9,0.1,1.5,0.2,1.8
		c0.1,0.3,0.3,0.6,0.6,0.8c0.3,0.2,0.6,0.3,1,0.3c0.4,0,0.7-0.1,1-0.3c0.3-0.2,0.5-0.5,0.6-0.8c0.1-0.3,0.1-0.8,0.1-1.7v-4.6h2.4v4
		c0,1.6-0.1,2.8-0.4,3.4c-0.3,0.7-0.8,1.3-1.4,1.7c-0.6,0.4-1.4,0.6-2.3,0.6c-1,0-1.9-0.2-2.5-0.7c-0.6-0.5-1.1-1.1-1.3-1.9
		c-0.2-0.6-0.3-1.6-0.3-3.1V26.8z"/>
	<path fill-rule="evenodd" clip-rule="evenodd" fill="#009AB6" d="M197,28.7c-0.7,0-1.3,0.3-1.8,0.8c-0.5,0.5-0.7,1.2-0.7,2
		c0,0.8,0.2,1.5,0.7,2c0.5,0.5,1.1,0.8,1.8,0.8c0.7,0,1.4-0.3,1.8-0.8c0.5-0.5,0.7-1.2,0.7-2c0-0.8-0.2-1.5-0.7-2
		C198.3,29,197.7,28.7,197,28.7L197,28.7z M199.4,26.8h2.4v9.4h-2.4v-1c-0.5,0.4-0.9,0.8-1.4,0.9c-0.5,0.2-1,0.3-1.5,0.3
		c-1.2,0-2.2-0.5-3.1-1.4c-0.9-0.9-1.3-2.1-1.3-3.5c0-1.4,0.4-2.6,1.3-3.6c0.9-0.9,1.9-1.4,3.1-1.4c0.6,0,1.1,0.1,1.6,0.3
		c0.5,0.2,0.9,0.5,1.4,1V26.8z"/>
	<rect x="203.9" y="23.2" fill-rule="evenodd" clip-rule="evenodd" fill="#009AB6" width="2.3" height="13"/>
	<polygon fill-rule="evenodd" clip-rule="evenodd" fill="#009AB6" points="213.6,23.5 219.9,23.5 219.9,25.8 216,25.8 216,28.1 
		219.9,28.1 219.9,30.4 216,30.4 216,36.1 213.6,36.1 	"/>
	<path fill-rule="evenodd" clip-rule="evenodd" fill="#009AB6" d="M221.8,26.8h2.4v4.5c0,0.9,0.1,1.5,0.2,1.8
		c0.1,0.3,0.3,0.6,0.6,0.8c0.3,0.2,0.6,0.3,1,0.3c0.4,0,0.7-0.1,1-0.3c0.3-0.2,0.5-0.5,0.6-0.8c0.1-0.3,0.1-0.8,0.1-1.7v-4.6h2.4v4
		c0,1.6-0.1,2.8-0.4,3.4c-0.3,0.7-0.8,1.3-1.4,1.7c-0.6,0.4-1.4,0.6-2.3,0.6c-1,0-1.9-0.2-2.5-0.7c-0.6-0.5-1.1-1.1-1.3-1.9
		c-0.2-0.6-0.3-1.6-0.3-3.1V26.8z"/>
	<path fill-rule="evenodd" clip-rule="evenodd" fill="#009AB6" d="M232.3,26.8h2.3v1c0.5-0.5,1-0.8,1.4-0.9c0.4-0.2,0.9-0.3,1.3-0.3
		c0.9,0,1.7,0.3,2.4,1c0.5,0.6,0.8,1.4,0.8,2.4v6.2h-2.3V32c0-1.1-0.1-1.9-0.1-2.2c-0.1-0.4-0.3-0.6-0.5-0.8
		c-0.2-0.2-0.6-0.3-0.9-0.3c-0.5,0-0.9,0.2-1.2,0.5c-0.3,0.3-0.6,0.8-0.7,1.3c-0.1,0.3-0.1,0.9-0.1,1.9v3.8h-2.3V26.8z"/>
	<path fill-rule="evenodd" clip-rule="evenodd" fill="#009AB6" d="M247.4,28.7c-0.7,0-1.3,0.3-1.8,0.8c-0.5,0.5-0.7,1.2-0.7,2
		c0,0.8,0.2,1.5,0.7,2c0.5,0.5,1.1,0.8,1.8,0.8c0.7,0,1.4-0.3,1.8-0.8c0.5-0.5,0.7-1.2,0.7-2c0-0.8-0.2-1.5-0.7-2
		C248.7,29,248.1,28.7,247.4,28.7L247.4,28.7z M249.8,23.2h2.3v13h-2.3v-1c-0.5,0.4-0.9,0.8-1.4,0.9c-0.5,0.2-1,0.3-1.5,0.3
		c-1.2,0-2.3-0.5-3.1-1.4c-0.9-0.9-1.3-2.1-1.3-3.5c0-1.4,0.4-2.6,1.3-3.6c0.9-0.9,1.9-1.4,3.1-1.4c0.6,0,1.1,0.1,1.6,0.3
		c0.5,0.2,0.9,0.5,1.4,1V23.2z"/>
</g>
</svg>
