<svg xmlns="http://www.w3.org/2000/svg" fill="none" viewBox="0 0 150 50"><path fill="#5367FF" d="M23.8946 44.3924c10.4419-2.4686 16.9083-12.947 14.4433-23.4037C35.8728 10.5319 25.4092 4.05626 14.9674 6.52484 4.52551 8.99343-1.94098 19.4719.524099 29.9286 2.98918 40.3853 13.4527 46.861 23.8946 44.3924Z"/><path fill="#00F3BB" d="M38.3377 20.9891c-.3515-1.495-.8679-2.9075-1.5233-4.2287l-.0043.0043-12.2343 11.3259c-.7638.7084-1.9008.8301-2.7992.3043l-5.1992-3.051c-.842-.4911-1.8966-.4172-2.6604.1869-3.2202 2.5511-11.46609 9.0833-11.58327 9.1789 4.06651 7.5536 12.82017 11.7519 21.56077 9.6831 10.4418-2.4685 16.9083-12.947 14.4432-23.4037Z"/><path fill="#44475B" d="M61.135 35.5503c-3.069 0-5.5555-.9523-7.4595-2.8569-1.904-1.9046-2.8559-4.2969-2.8559-7.177v-.0557c0-2.7872.9709-5.1656 2.9127-7.1352 1.9419-1.9696 4.3905-2.9544 7.3459-2.9544 1.6672 0 3.088.2183 4.2626.655 1.1746.4366 2.3018 1.1009 3.3816 1.9928l-2.2165 2.5921c-.8336-.7061-1.6719-1.231-2.5149-1.5748-.8431-.3437-1.8614-.5156-3.0549-.5156-1.8187 0-3.3485.6736-4.5894 2.0207-1.2409 1.3472-1.8613 2.9683-1.8613 4.8636v.0558c0 2.0253.6252 3.693 1.8755 5.003 1.2504 1.3099 2.8796 1.9649 4.8878 1.9649 1.8566 0 3.4574-.4924 4.8025-1.4772v-3.6512h-5.0867v-2.9823h8.4684v8.1943c-2.406 2.0254-5.1719 3.0381-8.2979 3.0381ZM73.9878 35.215V20.4987h3.4384v3.3168c1.061-2.5085 2.8323-3.707 5.3141-3.5955v3.5676h-.199c-1.5534 0-2.7943.497-3.7226 1.4911-.9283.9941-1.3925 2.4388-1.3925 4.3341v5.6022h-3.4384Z"/><path fill="#44475B" fill-rule="evenodd" d="M87.0679 33.3349c1.5156 1.4772 3.41 2.2158 5.6834 2.2158 2.2924 0 4.2058-.7479 5.7403-2.2437 1.5344-1.4958 2.3014-3.3028 2.3014-5.421v-.0558c0-2.1182-.762-3.9206-2.2872-5.4071-1.525-1.4865-3.4242-2.2297-5.6976-2.2297-2.2734 0-4.1774.7478-5.7119 2.2436-1.5345 1.4958-2.3018 3.3121-2.3018 5.449v.0557c0 2.1183.7578 3.916 2.2734 5.3932Zm9.0366-2.0898c-.8336.9012-1.9324 1.3518-3.2964 1.3518-1.3072 0-2.3965-.4599-3.268-1.3796-.8715-.9198-1.3072-2.03-1.3072-3.3307v-.0558c0-1.3192.4168-2.4294 1.2504-3.3306.8335-.9012 1.9229-1.3518 3.2679-1.3518 1.3262 0 2.425.4599 3.2964 1.3796.8715.9198 1.3072 2.0393 1.3072 3.3586v.0557c0 1.3007-.4168 2.4016-1.2503 3.3028Z" clip-rule="evenodd"/><path fill="#44475B" d="m107.593 35.3249-4.859-14.8278h3.524l3.012 10.0896 3.325-10.1453h2.955l3.325 10.1453 3.069-10.0896h3.467l-4.916 14.8278h-3.098l-3.353-10.0617-3.382 10.0617h-3.069ZM132.182 35.3249l-4.859-14.8278h3.524l3.012 10.0896 3.325-10.1453h2.955l3.325 10.1453 3.069-10.0896H150l-4.916 14.8278h-3.098l-3.353-10.0617-3.382 10.0617h-3.069Z"/></svg>