<svg width="230" height="33" viewBox="0 0 230 33" fill="none" xmlns="http://www.w3.org/2000/svg">
<path d="M50.6151 23.4353V32.0995H47.0831V23.6002C47.0831 22.4817 46.8664 21.6668 46.4328 21.1554C45.9992 20.644 45.3322 20.3866 44.425 20.3866C43.3511 20.3866 42.484 20.7264 41.8269 21.4061C41.1666 22.0858 40.8364 22.9865 40.8364 24.105V32.0995H37.3312V21.9802C37.3312 20.4889 37.2545 19.1559 37.1044 17.9846H40.4095L40.663 20.3041C41.1532 19.4463 41.8169 18.7864 42.6541 18.3179C43.4912 17.8527 44.4384 17.6184 45.4923 17.6184C48.9075 17.6217 50.6151 19.5618 50.6151 23.4353Z" fill="#4B4968"/>
<path d="M67.0576 17.9855V32.1003H63.5824V29.837C63.1488 30.6189 62.5284 31.2293 61.718 31.6681C60.9076 32.1069 59.9837 32.3247 58.9498 32.3247C57.7058 32.3247 56.6052 32.0278 55.6447 31.4306C54.6842 30.8334 53.9404 29.9854 53.4135 28.8867C52.8865 27.788 52.623 26.5111 52.623 25.0561C52.623 23.6011 52.8932 22.311 53.4302 21.1859C53.9671 20.0575 54.7142 19.1832 55.678 18.5596C56.6386 17.936 57.7325 17.6226 58.9565 17.6226C59.9937 17.6226 60.9142 17.8403 61.7247 18.2791C62.5351 18.718 63.1555 19.3284 63.589 20.1103V17.9855H67.0576ZM62.6218 28.3852C63.2622 27.5835 63.5824 26.4551 63.5824 25.0033C63.5824 23.512 63.2622 22.3671 62.6218 21.5653C61.9815 20.7636 61.0677 20.3644 59.8803 20.3644C58.713 20.3644 57.8025 20.7801 57.1522 21.6082C56.5018 22.4364 56.1783 23.5879 56.1783 25.0594C56.1783 26.5145 56.5018 27.6296 57.1522 28.4149C57.8025 29.1969 58.7197 29.5895 59.907 29.5895C61.0777 29.5862 61.9815 29.187 62.6218 28.3852Z" fill="#4B4968"/>
<path d="M79.9446 18.0146H83.4498L77.2064 32.1031H74.1247L67.9647 18.0146H71.6667L75.7623 28.1339L79.9446 18.0146Z" fill="#4B4968"/>
<path d="M84.5335 14.7155C84.1099 14.3063 83.8965 13.8114 83.8965 13.234C83.8965 12.6566 84.1099 12.1617 84.5335 11.7526C84.9571 11.3435 85.4707 11.1389 86.0743 11.1389C86.678 11.1389 87.1916 11.3435 87.6152 11.7526C88.0387 12.1617 88.2522 12.6566 88.2522 13.234C88.2522 13.8114 88.0387 14.3063 87.6152 14.7155C87.1916 15.1246 86.678 15.3292 86.0743 15.3292C85.4707 15.3292 84.9571 15.1246 84.5335 14.7155ZM84.3234 17.9852H87.8286V32.1H84.3234V17.9852Z" fill="#4B4968"/>
<path fill-rule="evenodd" clip-rule="evenodd" d="M24.7856 0.667725H7.23449C3.25621 0.667725 0.00146484 3.89427 0.00146484 7.83753V8.14598C0.00146484 12.0895 3.25621 15.3158 7.23449 15.3158H24.7856C28.7639 15.3158 32.0189 12.0895 32.0189 8.14598V7.83753C32.0189 3.89427 28.7639 0.667725 24.7856 0.667725Z" fill="#FF3333"/>
<path fill-rule="evenodd" clip-rule="evenodd" d="M13.544 10.0558C13.544 10.8252 12.6194 11.3705 11.7875 10.8225L8.84417 7.90689C8.84343 8.68294 8.84269 9.55878 8.84195 10.0487C8.84145 10.6151 8.37592 11.0763 7.80403 11.0763C7.23189 11.0763 6.76636 10.6148 6.76636 10.0475V5.4076C6.76636 5.12636 6.87717 4.86204 7.07828 4.66343C7.27938 4.46482 7.54059 4.35669 7.8305 4.35718C8.11842 4.35841 8.38334 4.46727 8.58197 4.66441L8.69155 4.77279C8.93545 5.01455 9.35621 5.43139 9.85909 5.92963L9.85142 5.93698L13.544 9.59728V10.0558Z" fill="white"/>
<path fill-rule="evenodd" clip-rule="evenodd" d="M13.5441 8.8183L11.4794 6.77164L11.4813 5.3723C11.4826 4.81105 11.9439 4.35498 12.5094 4.35498H12.5158C13.0828 4.35498 13.5441 4.81227 13.5441 5.37426V8.8183Z" fill="white"/>
<path fill-rule="evenodd" clip-rule="evenodd" d="M25.2357 10.1454C25.2357 10.7118 24.7709 11.1725 24.1995 11.1725C23.6281 11.1725 23.1636 10.7118 23.1636 10.1456C23.1636 9.85434 23.1636 9.25729 23.1641 8.65582L25.2357 6.60205V10.1454Z" fill="white"/>
<path fill-rule="evenodd" clip-rule="evenodd" d="M25.241 5.49806C25.2405 5.51179 25.237 5.52503 25.2355 5.53851V5.8227L23.1642 7.87597V7.87254C22.1841 8.84426 21.2038 9.81597 20.2228 10.7869C19.9967 11.0111 19.7093 11.1315 19.4187 11.1315C19.3284 11.1315 19.2378 11.1197 19.1488 11.0964C18.7844 10.9993 18.4977 10.7156 18.4003 10.3559C18.3011 9.98834 18.4154 9.59701 18.7063 9.3089C20.3015 7.72542 21.8982 6.14268 23.4959 4.56091C23.649 4.40963 23.8325 4.327 24.0272 4.32209L24.0856 4.32087C24.3972 4.31351 24.6978 4.43758 24.9162 4.65801C25.0886 4.83235 25.1977 5.05842 25.2304 5.29748L25.2355 5.2943V5.33745C25.2402 5.3833 25.243 5.42916 25.2417 5.47525L25.241 5.49806Z" fill="white"/>
<path fill-rule="evenodd" clip-rule="evenodd" d="M24.7136 17.3303H7.30352C3.28641 17.3303 0 20.5883 0 24.57V24.7385C0 28.7205 3.28641 31.9784 7.30352 31.9784H24.7136C28.7307 31.9784 32.0174 28.7205 32.0174 24.7385V24.57C32.0174 20.5883 28.7307 17.3303 24.7136 17.3303Z" fill="#FF3333"/>
<path fill-rule="evenodd" clip-rule="evenodd" d="M7.07812 22.4917C7.07812 21.9253 7.54291 21.4646 8.11431 21.4646C8.68521 21.4646 9.14975 21.9248 9.15025 22.4907C9.1505 22.7825 9.15025 23.3798 9.14975 23.9811L7.07812 26.0348V22.4917Z" fill="white"/>
<path fill-rule="evenodd" clip-rule="evenodd" d="M13.6143 23.3272C12.0188 24.9109 10.4218 26.4937 8.82416 28.0757C8.67451 28.2238 8.48651 28.3086 8.29456 28.3142L8.23792 28.3155C8.23074 28.3157 8.22332 28.3157 8.2159 28.3157C7.9119 28.3157 7.61729 28.1934 7.40407 27.9781C7.23141 27.8037 7.12257 27.5777 7.08992 27.3386L7.08473 27.342V27.2989C7.08003 27.253 7.07731 27.2072 7.07854 27.1611L7.08003 27.1233C7.08052 27.1125 7.08374 27.1025 7.08473 27.0919V26.8134L9.15611 24.7604V24.7633C10.1359 23.7918 11.1162 22.8201 12.0975 21.8494C12.5494 21.4014 13.2153 21.3852 13.6462 21.8126C14.0729 22.2353 14.059 22.8863 13.6143 23.3272Z" fill="white"/>
<path fill-rule="evenodd" clip-rule="evenodd" d="M22.8534 27.3655C22.8534 27.9388 22.3829 28.4052 21.8046 28.4052H21.8028C21.2248 28.4052 20.754 27.9388 20.754 27.3655V22.7271C20.754 22.1536 21.2248 21.6873 21.8028 21.6873C22.3829 21.6873 22.8534 22.1536 22.8534 22.7271V27.3655Z" fill="white"/>
<path fill-rule="evenodd" clip-rule="evenodd" d="M13.544 10.0558C13.544 10.8252 12.6194 11.3705 11.7875 10.8225L8.84417 7.90689C8.84343 8.68294 8.84269 9.55878 8.84195 10.0487C8.84145 10.6151 8.37592 11.0763 7.80403 11.0763C7.23189 11.0763 6.76636 10.6148 6.76636 10.0475V5.4076C6.76636 5.12636 6.87717 4.86204 7.07828 4.66343C7.27938 4.46482 7.54059 4.35669 7.8305 4.35718C8.11842 4.35841 8.38334 4.46727 8.58197 4.66441L8.69155 4.77279C8.93545 5.01455 9.35621 5.43139 9.85909 5.92963L9.85142 5.93698L13.544 9.59728V10.0558Z" fill="white"/>
<path fill-rule="evenodd" clip-rule="evenodd" d="M13.5441 8.8183L11.4794 6.77164L11.4813 5.3723C11.4826 4.81105 11.9439 4.35498 12.5094 4.35498H12.5158C13.0828 4.35498 13.5441 4.81227 13.5441 5.37426V8.8183Z" fill="white"/>
<path fill-rule="evenodd" clip-rule="evenodd" d="M25.2357 10.1454C25.2357 10.7118 24.7709 11.1725 24.1995 11.1725C23.6281 11.1725 23.1636 10.7118 23.1636 10.1456C23.1636 9.85434 23.1636 9.25729 23.1641 8.65582L25.2357 6.60205V10.1454Z" fill="white"/>
<path fill-rule="evenodd" clip-rule="evenodd" d="M25.241 5.49806C25.2405 5.51179 25.237 5.52503 25.2355 5.53851V5.8227L23.1642 7.87597V7.87254C22.1841 8.84426 21.2038 9.81597 20.2228 10.7869C19.9967 11.0111 19.7093 11.1315 19.4187 11.1315C19.3284 11.1315 19.2378 11.1197 19.1488 11.0964C18.7844 10.9993 18.4977 10.7156 18.4003 10.3559C18.3011 9.98834 18.4154 9.59701 18.7063 9.3089C20.3015 7.72542 21.8982 6.14268 23.4959 4.56091C23.649 4.40963 23.8325 4.327 24.0272 4.32209L24.0856 4.32087C24.3972 4.31351 24.6978 4.43758 24.9162 4.65801C25.0886 4.83235 25.1977 5.05842 25.2304 5.29748L25.2355 5.2943V5.33745C25.2402 5.3833 25.243 5.42916 25.2417 5.47525L25.241 5.49806Z" fill="white"/>
<path fill-rule="evenodd" clip-rule="evenodd" d="M7.07812 22.4917C7.07812 21.9253 7.54291 21.4646 8.11431 21.4646C8.68521 21.4646 9.14975 21.9248 9.15025 22.4907C9.1505 22.7825 9.15025 23.3798 9.14975 23.9811L7.07812 26.0348V22.4917Z" fill="white"/>
<path fill-rule="evenodd" clip-rule="evenodd" d="M13.6143 23.3272C12.0188 24.9109 10.4218 26.4937 8.82416 28.0757C8.67451 28.2238 8.48651 28.3086 8.29456 28.3142L8.23792 28.3155C8.23074 28.3157 8.22332 28.3157 8.2159 28.3157C7.9119 28.3157 7.61729 28.1934 7.40407 27.9781C7.23141 27.8037 7.12257 27.5777 7.08992 27.3386L7.08473 27.342V27.2989C7.08003 27.253 7.07731 27.2072 7.07854 27.1611L7.08003 27.1233C7.08052 27.1125 7.08374 27.1025 7.08473 27.0919V26.8134L9.15611 24.7604V24.7633C10.1359 23.7918 11.1162 22.8201 12.0975 21.8494C12.5494 21.4014 13.2153 21.3852 13.6462 21.8126C14.0729 22.2353 14.059 22.8863 13.6143 23.3272Z" fill="white"/>
<path fill-rule="evenodd" clip-rule="evenodd" d="M22.8534 27.3655C22.8534 27.9388 22.3829 28.4052 21.8046 28.4052H21.8028C21.2248 28.4052 20.754 27.9388 20.754 27.3655V22.7271C20.754 22.1536 21.2248 21.6873 21.8028 21.6873C22.3829 21.6873 22.8534 22.1536 22.8534 22.7271V27.3655Z" fill="white"/>
<path d="M111.641 17.7439C114.771 17.7439 116.335 19.553 116.335 23.1714V32.0961H114.61V23.2833C114.61 21.8658 114.356 20.84 113.847 20.2058C113.338 19.553 112.527 19.2266 111.415 19.2266C110.114 19.2266 109.086 19.6556 108.332 20.5136C107.597 21.3716 107.229 22.5373 107.229 24.0107V32.0961H105.504V23.2833C105.504 21.8658 105.24 20.84 104.712 20.2058C104.203 19.553 103.392 19.2266 102.28 19.2266C100.998 19.2266 99.9706 19.6556 99.1976 20.5136C98.4434 21.3716 98.0664 22.5373 98.0664 24.0107V32.0961H96.3696V21.9684C96.3696 20.5136 96.2941 19.2173 96.1433 18.0796H97.7836L98.0098 20.5975C98.4057 19.665 98.9902 18.9562 99.7632 18.4713C100.555 17.9863 101.469 17.7439 102.506 17.7439C104.788 17.7439 106.249 18.6578 106.89 20.4856C107.286 19.6276 107.898 18.9562 108.728 18.4713C109.576 17.9863 110.547 17.7439 111.641 17.7439Z" fill="#4B4968"/>
<path d="M130.649 18.0796V32.0961H128.981V29.5502C128.528 30.4454 127.887 31.1262 127.058 31.5925C126.228 32.0588 125.276 32.2919 124.201 32.2919C122.542 32.2919 121.288 31.835 120.44 30.9211C119.592 30.0071 119.167 28.6549 119.167 26.8644V18.0796H120.864V26.7525C120.864 28.1327 121.147 29.1492 121.713 29.802C122.278 30.4548 123.155 30.7812 124.343 30.7812C125.738 30.7812 126.85 30.3522 127.68 29.4942C128.509 28.6176 128.924 27.4612 128.924 26.0251V18.0796H130.649Z" fill="#4B4968"/>
<path d="M136.06 19.4505V27.7876C136.06 28.9067 136.277 29.6807 136.711 30.1097C137.144 30.5387 137.785 30.7532 138.634 30.7532C139.162 30.7532 139.671 30.6693 140.161 30.5014V32.0401C139.557 32.1893 138.945 32.264 138.323 32.264C137.078 32.264 136.098 31.9189 135.381 31.2288C134.684 30.5387 134.335 29.5035 134.335 28.1233V19.4505H131.535V18.0796H134.335V14.3586L136.06 13.7152V18.0796H140.246V19.4505H136.06Z" fill="#4B4968"/>
<path d="M152.884 18.0796V32.0961H151.216V29.5502C150.763 30.4454 150.122 31.1262 149.293 31.5925C148.463 32.0588 147.511 32.2919 146.437 32.2919C144.777 32.2919 143.524 31.835 142.675 30.9211C141.827 30.0071 141.403 28.6549 141.403 26.8644V18.0796H143.099V26.7525C143.099 28.1327 143.382 29.1492 143.948 29.802C144.513 30.4548 145.39 30.7812 146.578 30.7812C147.973 30.7812 149.085 30.3522 149.915 29.4942C150.745 28.6176 151.159 27.4612 151.159 26.0251V18.0796H152.884Z" fill="#4B4968"/>
<path d="M167.911 18.0796V32.0961H166.186V29.4103C165.771 30.3429 165.139 31.0609 164.291 31.5645C163.461 32.0495 162.462 32.2919 161.293 32.2919C160.03 32.2919 158.918 32.0028 157.956 31.4246C157.013 30.8278 156.278 29.9885 155.75 28.9067C155.241 27.8063 154.987 26.5287 154.987 25.0738C154.987 23.619 155.251 22.3414 155.778 21.241C156.306 20.1219 157.042 19.2639 157.984 18.6671C158.946 18.0516 160.049 17.7439 161.293 17.7439C162.443 17.7439 163.433 17.9863 164.263 18.4713C165.111 18.9562 165.752 19.665 166.186 20.5975V18.0796H167.911ZM161.548 30.7812C163.018 30.7812 164.159 30.2776 164.97 29.2704C165.78 28.2632 166.186 26.8457 166.186 25.0179C166.186 23.1714 165.78 21.7446 164.97 20.7374C164.159 19.7302 163.009 19.2266 161.519 19.2266C160.03 19.2266 158.87 19.7489 158.041 20.7934C157.211 21.8192 156.797 23.246 156.797 25.0738C156.797 26.883 157.211 28.2912 158.041 29.2984C158.87 30.2869 160.039 30.7812 161.548 30.7812Z" fill="#4B4968"/>
<path d="M170.903 11.505H172.6V32.0961H170.903V11.505Z" fill="#4B4968"/>
<path d="M186.045 12.9318C185.234 12.9318 184.612 13.1463 184.179 13.5753C183.745 14.0043 183.528 14.769 183.528 15.8694V18.0796H187.176V19.4505H183.528V32.0961H181.803V19.4505H179.032V18.0796H181.803V15.5616C181.803 14.1628 182.152 13.1183 182.849 12.4282C183.547 11.7381 184.509 11.3931 185.734 11.3931C186.3 11.3931 186.884 11.4677 187.487 11.6169V13.1556C186.978 13.0064 186.498 12.9318 186.045 12.9318Z" fill="#4B4968"/>
<path d="M200.022 18.0796V32.0961H198.353V29.5502C197.901 30.4454 197.26 31.1262 196.43 31.5925C195.601 32.0588 194.648 32.2919 193.574 32.2919C191.915 32.2919 190.661 31.835 189.813 30.9211C188.964 30.0071 188.54 28.6549 188.54 26.8644V18.0796H190.237V26.7525C190.237 28.1327 190.52 29.1492 191.085 29.802C191.651 30.4548 192.527 30.7812 193.715 30.7812C195.11 30.7812 196.223 30.3522 197.052 29.4942C197.882 28.6176 198.297 27.4612 198.297 26.0251V18.0796H200.022Z" fill="#4B4968"/>
<path d="M209.618 17.7439C213.031 17.7439 214.737 19.553 214.737 23.1714V32.0961H213.012V23.2833C213.012 21.8845 212.72 20.8586 212.135 20.2058C211.57 19.553 210.674 19.2266 209.449 19.2266C208.035 19.2266 206.894 19.6556 206.027 20.5136C205.159 21.3716 204.726 22.5279 204.726 23.9827V32.0961H203.029V21.9684C203.029 20.5136 202.954 19.2173 202.803 18.0796H204.443L204.669 20.6535C205.103 19.7023 205.753 18.9842 206.621 18.4992C207.488 17.9957 208.487 17.7439 209.618 17.7439Z" fill="#4B4968"/>
<path d="M229.701 11.505V32.0961H227.976V29.4103C227.561 30.3429 226.929 31.0609 226.081 31.5645C225.251 32.0495 224.252 32.2919 223.083 32.2919C221.839 32.2919 220.736 31.9935 219.774 31.3967C218.832 30.7812 218.096 29.9232 217.568 28.8228C217.041 27.7037 216.777 26.4167 216.777 24.9619C216.777 23.5071 217.031 22.2388 217.54 21.1571C218.068 20.0566 218.803 19.2173 219.746 18.6391C220.708 18.0423 221.82 17.7439 223.083 17.7439C224.233 17.7439 225.223 17.9863 226.053 18.4713C226.901 18.9562 227.542 19.665 227.976 20.5975V11.505H229.701ZM223.309 30.7812C224.799 30.7812 225.949 30.2776 226.76 29.2704C227.57 28.2632 227.976 26.8457 227.976 25.0179C227.976 23.1901 227.57 21.7726 226.76 20.7654C225.949 19.7396 224.808 19.2266 223.338 19.2266C221.829 19.2266 220.66 19.7302 219.831 20.7374C219.001 21.7446 218.587 23.1528 218.587 24.9619C218.587 26.7898 219.001 28.2166 219.831 29.2424C220.66 30.2683 221.82 30.7812 223.309 30.7812Z" fill="#4B4968"/>
</svg>
