<?xml version="1.0" encoding="utf-8"?>
<!-- Generator: Adobe Illustrator 19.0.0, SVG Export Plug-In . SVG Version: 6.00 Build 0)  -->
<svg version="1.1" id="Layer_1" xmlns="http://www.w3.org/2000/svg" xmlns:xlink="http://www.w3.org/1999/xlink" x="0px" y="0px"
	 viewBox="0 0 400 152" style="enable-background:new 0 0 400 152;" xml:space="preserve">
<style type="text/css">
	.st0{fill:#0E2446;}
</style>
<g id="XMLID_2_">
	<g id="XMLID_35_">
		<polygon id="XMLID_43_" class="st0" points="89.5,72.2 95.9,60 86.9,56.3 85.9,64.3 86.9,65.7 85.9,72.8 		"/>
		<polygon id="XMLID_42_" class="st0" points="95.3,79 99.8,75.1 104.7,63.6 97.6,60.6 91,79.3 86.4,83.1 80.6,93.4 86.4,93.4 		"/>
		<path id="XMLID_41_" class="st0" d="M61.3,114.7c14.9,0,31.1-6.6,40.5-18.8H20.7C32.2,110,48.2,114.7,61.3,114.7"/>
		<polygon id="XMLID_40_" class="st0" points="70,93.4 77.3,93.4 85,79 83.6,76.3 		"/>
		<path id="XMLID_37_" class="st0" d="M11.8,60.3c0-23.1,19.7-47.9,49.9-47.9c21.1,0,38.5,13.4,44.6,29.1l-23.9-6.6L61.2,23
			l-10.5-1.7l-4.8,10.2l-3.9,2l-6,15.2c0-0.3-4.2,1.8-4.2,1.8s-8.9,23.8-13.4,35.9C15,80.2,11.8,73.6,11.8,60.3 M31.2,68.6l4-11.1
			l2.3-1.1l-9.1,27.9l-6.5,9.1h2.8l10.9-13.1L40.8,60l2,2.8c-0.8,9.4-0.5,7.1-1.1,12.3L28.6,93.4h3.1l12.8-9.7l0.8,0.3l-4.8,9.4
			h14.1l21.7-14.5l6.6-24.2l16-0.8l-6.2-4L57.6,44c-7.7-8.2-8-8.6-8-8.6l9.2,0.8l-6.6-6.1v-6.3l8.6,1.6l23.6,13.7l27.2,7.4
			C108.8,33.7,92.4,9.1,61.4,9.1C29.2,9.1,7.8,35.4,7.8,60.3c0,16.6,5.5,26.2,10.5,33.2c3.4-7.7,9.9-23.4,9.9-23.4L31.2,68.6z"/>
		<path id="XMLID_36_" class="st0" d="M103.3,75.7L92.1,93.4h11.8c6.3-8.8,9.2-17.9,9.9-26.8l-7.1-2.5L103.3,75.7z"/>
	</g>
	<path id="XMLID_32_" class="st0" d="M165.2,65.1h-4.5V35.4h4.5c10.1,0,11.9,7.7,11.9,15.1S175.2,65.1,165.2,65.1 M165.2,32.8H142
		v2.7h0.2c2.3,0,4,0.1,4.9,0.6c1.4,0.7,1.9,2.7,1.9,5.6v44.9c0,2.5-0.5,3.8-1.5,4.6c-0.8,0.7-2.5,1.1-4.8,1.1H142V95h27.3v-2.7h-2.5
		c-2.5,0-4.1-0.5-4.8-1.3c-1-1-1.2-2.5-1.2-4.5V67.9h4.5c12.9,0,23.8-5,23.8-17.6C189,37.4,177.8,32.8,165.2,32.8"/>
	<path id="XMLID_31_" class="st0" d="M224.4,63.9h1.4c1.6,0,3.4,0.1,4.5,1.2c1.5,1.4,1.3,4.7,1.3,4.7v13.3c0,1.9-0.4,4.7-1.6,6.4
		c-1.7,2.5-4.2,3.5-7.3,3.5c-10.7,0-12.3-16.9-12.3-28.7c0-11.3,1.7-29.9,13.7-29.9c9.7,0,12.8,10.4,14.8,17h3.1V32.5h-2.9l-3.6,3.7
		c-0.1-0.1,0.1,0,0-0.1c-1.7-1.7-4.9-4.6-12-4.6c-15.4,0-26,13.8-26,32.8c0,18.6,8.3,32.2,23.5,32.2c6.6,0,11.2-3,13.3-6.5h0.1
		l5.9,5.6h2.9V69.8c0,0-0.2-3.4,1.3-4.7c1.1-1.1,2.7-1.2,4.4-1.2h0.5v-2.8h-25L224.4,63.9L224.4,63.9z"/>
	<path id="XMLID_30_" class="st0" d="M257.9,35.5h1.4c2.3,0,2.9,0.1,3.8,0.6c1.4,0.7,1.9,3,1.9,5.9v44.6c0,2.5-0.5,3.8-1.5,4.6
		c-0.8,0.7-2.3,1.1-4.5,1.1h-1.2V95h26v-2.7h-1.1c-2.5,0-4.1-0.5-4.9-1.3c-0.9-1-1.1-2.5-1.1-4.5V41.9c0-1.9,0.3-4.3,1.2-5.3
		c0.8-0.8,1.9-1.3,4.6-1.3h1.4v-2.7h-26L257.9,35.5L257.9,35.5z"/>
	<path id="XMLID_29_" class="st0" d="M353,37.5c0.8-1.4,2.4-1.9,5.3-1.9h1v-2.7H339l-13.4,43.4L312,32.9h-19.6v2.7h0.9
		c1.8,0,2.6,0.2,3.6,0.7c1.8,0.9,2.4,2.6,2.4,5.7L299,80.3c-0.1,7.8-0.9,9.3-2,10.4c-1,1-2.5,1.7-4.2,1.7h-0.5v2.7h17.8v-2.7h-1
		c-1.8,0-3.2-0.7-4.2-1.7c-1.1-1.1-1.9-2.8-2-10.4L302.6,40l17.7,55.1h2.6L340.4,40v45.7c0,4.8-1,6.6-6.2,6.6h-0.8V95h25.9v-2.7
		h-0.8c-5.2,0-6.3-1.8-6.3-6.6V42.6C352.2,40.6,352.4,38.5,353,37.5"/>
	<g id="XMLID_3_">
		<path id="XMLID_28_" class="st0" d="M146.9,113v29h-5v-29H146.9z"/>
		<path id="XMLID_27_" class="st0" d="M156.2,125.1V142h-4.5v-21.6h4.3v2.2c0.5-0.4,0.9-0.8,1.3-1.1c0.4-0.3,0.8-0.6,1.2-0.8
			c0.4-0.2,0.8-0.4,1.3-0.5s1-0.2,1.7-0.2c1.2,0,2.1,0.4,2.8,1.2c0.7,0.8,1,1.9,1,3.4v17.5h-4.5v-16.7c0-0.5-0.1-0.9-0.4-1.2
			c-0.3-0.3-0.7-0.4-1.2-0.4s-1,0.1-1.4,0.4C157.2,124.4,156.7,124.7,156.2,125.1z"/>
		<path id="XMLID_24_" class="st0" d="M182.9,113v29h-4.3v-2.2h-0.1c-0.7,0.9-1.5,1.6-2.1,2c-0.7,0.4-1.6,0.6-2.7,0.6
			c-1.4,0-2.6-0.5-3.4-1.5s-1.2-2.5-1.2-4.5V126c0-2,0.4-3.5,1.2-4.5c0.8-1,1.9-1.5,3.4-1.5c0.5,0,0.9,0.1,1.3,0.2s0.7,0.3,1.1,0.4
			c0.3,0.2,0.7,0.4,1,0.7c0.4,0.3,0.8,0.6,1.2,0.9V113H182.9z M178.4,137.6v-12.8c-0.5-0.3-0.9-0.6-1.3-0.8
			c-0.4-0.2-0.8-0.3-1.3-0.3c-0.3,0-0.6,0-0.9,0.1s-0.5,0.3-0.7,0.5c-0.2,0.3-0.4,0.6-0.5,1.1c-0.1,0.4-0.2,1-0.2,1.7v8
			c0,0.7,0.1,1.3,0.2,1.7c0.1,0.4,0.3,0.8,0.5,1.1c0.2,0.3,0.4,0.4,0.7,0.5c0.3,0.1,0.5,0.1,0.9,0.1c0.5,0,0.9-0.1,1.3-0.3
			C177.5,138.2,177.9,137.9,178.4,137.6z"/>
		<path id="XMLID_21_" class="st0" d="M191.5,113v4.1H187V113H191.5z M191.5,120.4V142H187v-21.6H191.5z"/>
		<path id="XMLID_18_" class="st0" d="M199.8,126.8h-4.5c0.1-2.2,0.8-3.9,2.1-5c1.3-1.2,3-1.7,5.1-1.7s3.7,0.5,4.8,1.4
			c1.1,1,1.7,2.4,1.7,4.4v13.8c0,0.3,0,0.7,0.1,1.1s0.1,0.8,0.2,1.2h-4.2c0-0.3-0.1-0.6-0.1-0.9c-0.1-0.3-0.1-0.6-0.1-0.8
			c-0.9,0.7-1.7,1.2-2.4,1.6c-0.8,0.3-1.7,0.5-2.8,0.5c-1.5,0-2.7-0.5-3.4-1.4c-0.8-0.9-1.1-2.1-1.1-3.5c0-1.2,0.2-2.2,0.6-3.2
			c0.4-0.9,1-1.8,1.8-2.6c0.8-0.8,1.8-1.5,3-2.1c1.2-0.7,2.6-1.3,4.2-1.9v-1.3c0-1.8-0.7-2.8-2.2-2.8c-1,0-1.7,0.3-2,0.8
			C200,125.1,199.8,125.8,199.8,126.8z M204.6,136.7V131c-1,0.6-1.9,1.1-2.5,1.6c-0.7,0.5-1.2,1-1.6,1.4s-0.6,0.9-0.8,1.3
			c-0.1,0.4-0.2,0.9-0.2,1.4c0,0.7,0.2,1.2,0.5,1.5s0.9,0.5,1.6,0.5c0.6,0,1.2-0.2,1.7-0.6C203.8,137.7,204.2,137.2,204.6,136.7z"/>
		<path id="XMLID_17_" class="st0" d="M232.3,130l3.5-16.9h6.5v29H238v-22.6h-0.1l-4.5,22.6h-2.3l-4.5-22.6h-0.1v22.6h-4.3v-29h6.5
			L232.3,130L232.3,130z"/>
		<path id="XMLID_16_" class="st0" d="M255.7,137.4v-16.9h4.5v21.6h-4.3v-2.2c-0.5,0.4-0.9,0.8-1.3,1.1s-0.8,0.6-1.2,0.8
			c-0.4,0.2-0.8,0.4-1.3,0.5s-1,0.2-1.7,0.2c-1.2,0-2.1-0.4-2.8-1.2c-0.7-0.8-1-1.9-1-3.4v-17.5h4.5v16.7c0,0.5,0.1,0.9,0.4,1.2
			c0.3,0.3,0.7,0.4,1.2,0.4s0.9-0.1,1.4-0.4C254.6,138,255.1,137.7,255.7,137.4z"/>
		<path id="XMLID_15_" class="st0" d="M265.6,137.6v-13.4h-2.5v-3.7h2.5v-5.9h4.5v5.8h3v3.7h-3v12.4c0,1.2,0.5,1.8,1.5,1.8h1.5v3.9
			c-0.3,0.1-0.6,0.1-0.9,0.2c-0.3,0-0.8,0.1-1.3,0.1c-1.7,0-3-0.4-3.9-1.2C266.1,140.5,265.6,139.2,265.6,137.6z"/>
		<path id="XMLID_14_" class="st0" d="M285.3,137.4v-16.9h4.5v21.6h-4.3v-2.2c-0.5,0.4-0.9,0.8-1.3,1.1c-0.4,0.3-0.8,0.6-1.2,0.8
			c-0.4,0.2-0.8,0.4-1.3,0.5s-1,0.2-1.7,0.2c-1.2,0-2.1-0.4-2.8-1.2c-0.7-0.8-1-1.9-1-3.4v-17.5h4.5v16.7c0,0.5,0.1,0.9,0.4,1.2
			c0.3,0.3,0.7,0.4,1.2,0.4s0.9-0.1,1.4-0.4C284.2,138,284.7,137.7,285.3,137.4z"/>
		<path id="XMLID_11_" class="st0" d="M298,126.8h-4.5c0.1-2.2,0.8-3.9,2.1-5c1.3-1.2,3-1.7,5.1-1.7s3.7,0.5,4.8,1.4
			c1.1,1,1.7,2.4,1.7,4.4v13.8c0,0.3,0,0.7,0.1,1.1s0.1,0.8,0.2,1.2h-4.3c0-0.3-0.1-0.6-0.1-0.9c-0.1-0.3-0.1-0.6-0.1-0.8
			c-0.9,0.7-1.7,1.2-2.4,1.6c-0.8,0.3-1.7,0.5-2.8,0.5c-1.5,0-2.7-0.5-3.4-1.4c-0.8-0.9-1.1-2.1-1.1-3.5c0-1.2,0.2-2.2,0.6-3.2
			c0.4-0.9,1-1.8,1.8-2.6c0.8-0.8,1.8-1.5,3-2.1c1.2-0.7,2.6-1.3,4.2-1.9v-1.3c0-1.8-0.7-2.8-2.2-2.8c-1,0-1.7,0.3-2,0.8
			C298.3,125.1,298.1,125.8,298,126.8z M302.8,136.7V131c-1,0.6-1.9,1.1-2.5,1.6c-0.7,0.5-1.2,1-1.6,1.4c-0.4,0.4-0.6,0.9-0.8,1.3
			c-0.1,0.4-0.2,0.9-0.2,1.4c0,0.7,0.2,1.2,0.5,1.5s0.9,0.5,1.6,0.5c0.6,0,1.2-0.2,1.7-0.6C302,137.7,302.4,137.2,302.8,136.7z"/>
		<path id="XMLID_10_" class="st0" d="M316,113v29h-4.5v-29H316z"/>
		<path id="XMLID_9_" class="st0" d="M334.2,129.2V142h-5v-29h13.9v4.3h-8.9v7.5h6.7v4.3h-6.7V129.2z"/>
		<path id="XMLID_8_" class="st0" d="M354.8,137.4v-16.9h4.5v21.6H355v-2.2c-0.5,0.4-0.9,0.8-1.3,1.1c-0.4,0.3-0.8,0.6-1.2,0.8
			c-0.4,0.2-0.8,0.4-1.3,0.5s-1,0.2-1.7,0.2c-1.2,0-2.1-0.4-2.8-1.2c-0.7-0.8-1-1.9-1-3.4v-17.5h4.5v16.7c0,0.5,0.1,0.9,0.4,1.2
			c0.3,0.3,0.7,0.4,1.2,0.4s0.9-0.1,1.4-0.4C353.7,138,354.2,137.7,354.8,137.4z"/>
		<path id="XMLID_7_" class="st0" d="M367.9,125.1V142h-4.5v-21.6h4.3v2.2c0.5-0.4,0.9-0.8,1.3-1.1c0.4-0.3,0.8-0.6,1.2-0.8
			c0.4-0.2,0.8-0.4,1.3-0.5s1-0.2,1.7-0.2c1.2,0,2.1,0.4,2.8,1.2s1,1.9,1,3.4v17.5h-4.5v-16.7c0-0.5-0.1-0.9-0.4-1.2
			c-0.3-0.3-0.7-0.4-1.2-0.4s-1,0.1-1.4,0.4C368.9,124.4,368.4,124.7,367.9,125.1z"/>
		<path id="XMLID_4_" class="st0" d="M394.6,113v29h-4.3v-2.2h-0.1c-0.7,0.9-1.5,1.6-2.1,2c-0.7,0.4-1.6,0.6-2.7,0.6
			c-1.4,0-2.6-0.5-3.4-1.5c-0.8-1-1.2-2.5-1.2-4.5V126c0-2,0.4-3.5,1.2-4.5s1.9-1.5,3.4-1.5c0.5,0,0.9,0.1,1.3,0.2
			c0.4,0.1,0.7,0.3,1.1,0.4c0.3,0.2,0.7,0.4,1,0.7c0.4,0.3,0.8,0.6,1.2,0.9V113H394.6z M390.1,137.6v-12.8c-0.5-0.3-0.9-0.6-1.3-0.8
			c-0.4-0.2-0.8-0.3-1.3-0.3c-0.3,0-0.6,0-0.9,0.1c-0.3,0.1-0.5,0.3-0.7,0.5c-0.2,0.3-0.4,0.6-0.5,1.1c-0.1,0.4-0.2,1-0.2,1.7v8
			c0,0.7,0.1,1.3,0.2,1.7c0.1,0.4,0.3,0.8,0.5,1.1c0.2,0.3,0.4,0.4,0.7,0.5s0.5,0.1,0.9,0.1c0.5,0,0.9-0.1,1.3-0.3
			C389.2,138.2,389.6,137.9,390.1,137.6z"/>
	</g>
</g>
</svg>
