<svg xmlns="http://www.w3.org/2000/svg" width="260" height="46" fill="none" viewBox="0 0 260 46">
  <g clip-path="url(#a)">
    <path fill="#1d1b1c" d="m36.97 8-10.7-6.1a10.4 10.4 0 0 0-10.38 0L5.19 8A10.2 10.2 0 0 0 0 16.89V29.1c0 3.67 1.98 7.05 5.19 8.9l10.7 6.11a10.5 10.5 0 0 0 10.37 0L36.96 38a10.2 10.2 0 0 0 5.2-8.89V16.9c0-3.67-1.99-7.05-5.2-8.9"/>
    <path fill="url(#b)" d="M21.08.82c1.27 0 2.52.33 3.63.97l13 7.48a7.2 7.2 0 0 1 3.63 6.27v14.94a7.3 7.3 0 0 1-3.63 6.27l-13 7.47a7.2 7.2 0 0 1-7.27 0l-13-7.47a7.2 7.2 0 0 1-3.63-6.27V15.54a7.3 7.3 0 0 1 3.63-6.27l13-7.5a7 7 0 0 1 3.64-.96m0-.81c-1.4 0-2.8.36-4.05 1.09L4.05 8.56A8 8 0 0 0 0 15.54v14.94a8 8 0 0 0 4.05 6.98l13 7.47a8.1 8.1 0 0 0 8.09 0l13-7.47a8 8 0 0 0 4.05-6.98V15.54a8 8 0 0 0-4.05-6.98L25.1 1.09A8 8 0 0 0 21.06 0z"/>
    <path fill="url(#c)" d="m36.72 14.12-10.6 24.23h-1.24l-3.72-8.33-3.63 8.33h-1.36L5.43 14.12h4.9l6.45 14.65 1.88-4.43-3.53-7.93h12l-3.41 7.8 2 4.54 6.2-14.65h4.8zM20.89 7a4.05 4.05 0 1 0 0 8.1 4.05 4.05 0 1 0 0-8.1"/>
    <path fill="#000" d="M64.37 10.9h-.22c-.38-1.9-.92-3.31-3.46-3.31h-1.67V20.1c0 1.27.46 1.91.99 1.91v.21h-5.77v-.2c.52 0 .98-.67.98-1.92V7.6h-1.67c-2.53 0-3.09 1.41-3.47 3.3h-.21l.1-3.93h14.27l.1 3.94zM73.17 14.55q0-1.9-1.81-1.9c-.75 0-1.52.47-1.99 1.2v6.06c0 1.04.47 2.11 1 2.11v.21H64.8v-.2c.53 0 .99-1.06.99-2.03V9.23c0-1.05-.46-2.05-1-2.05v-.22a14 14 0 0 0 4.34-.85h.24v6.8c.81-1 2.22-1.8 3.82-1.8 2.3 0 3.57 1.43 3.57 4.01v4.8c0 1.03.46 2.1.99 2.1v.21h-5.57v-.2c.53 0 1-1.06 1-2.03zM88.14 16.11H81.3c.15 2.67 1.44 4.17 3.34 4.17.76 0 2.87-.14 3.33-2.3h.22c-.25 2.89-2.28 4.47-4.96 4.47-3.27 0-5.56-2.35-5.56-5.73 0-3.37 2.2-5.61 5.33-5.61 2.87 0 5.15 2 5.15 4.56v.44zm-3.49-.5c-.08-2.48-.7-4-1.58-4-1.06 0-1.72 1.84-1.8 4zM96.06 9.22c-.42-1.3-1.2-2.04-1.65-2.04v-.22h6.46v.22c-.86 0-1.19.74-.7 2.12l2.85 8.69 1.98-6.04-.86-2.73c-.43-1.3-1.2-2.04-1.65-2.04v-.22h6.46v.22c-.86 0-1.2.74-.71 2.12l2.86 8.69 2.94-8.92c.44-1.37.04-1.9-.83-1.9v-.2h3.57v.2c-.81 0-1.67.78-2.05 1.96l-4.16 13.1h-2.3l-2.87-9.08-2.9 9.08h-2.29L96.1 9.22zM124.53 16.11h-6.84c.14 2.67 1.43 4.17 3.33 4.17.76 0 2.88-.14 3.34-2.3h.21c-.24 2.89-2.27 4.47-4.95 4.47-3.27 0-5.57-2.35-5.57-5.73 0-3.37 2.2-5.61 5.34-5.61 2.87 0 5.15 2 5.15 4.56v.44zm-3.49-.5c-.08-2.48-.7-4-1.59-4-1.05 0-1.71 1.84-1.8 4zM134.83 20.49c0 .46.15.76.48.76.22 0 .4-.09.58-.45h.21c0 .96-.97 1.65-2.26 1.65-1.37 0-2.15-.38-2.48-1.2-.66.84-1.65 1.2-2.82 1.2-1.9 0-3.55-1.29-3.55-3.47 0-3.13 2.76-4.17 4.64-4.17 1.16 0 1.6.33 1.6.33v-1.51c0-1.2-.46-2-1.09-2q-.81 0-.82 1.67c0 .92-.81 1.61-2.05 1.61-1 0-1.54-.54-1.54-1.38 0-1.53 1.85-2.42 4.23-2.42 3.2 0 4.87 1.97 4.87 5.07zm-3.58-3.98c0-.48-.25-.99-.86-.99-.98 0-1.67 1.28-1.67 3.54 0 1.38.6 2.19 1.29 2.19q.72.02 1.24-.66z"/>
    <path fill="#000" d="M140.46 19.91c0 1.04.47 2.11 1 2.11v.21h-5.57v-.2c.53 0 .99-1.06.99-2.03V9.23c0-1.05-.46-2.05-1-2.05v-.22c1.58-.1 3.26-.38 4.34-.85h.24v13.82zM145.54 8.2h.42v3.1h2.42v.53h-2.42v7.21c0 1.04.4 1.6 1.1 1.6.6 0 1.12-.48 1.2-.89h.22c0 1.53-1.34 2.67-3.14 2.67-1.95 0-2.96-1.19-2.96-3.4v-7.2h-1.34v-.53h.32c1.94 0 3.8-1.33 4.17-3.11z"/>
    <path fill="#000" d="M156.75 14.55q0-1.9-1.82-1.9c-.74 0-1.52.47-1.98 1.2v6.06c0 1.04.46 2.11 1 2.11v.21h-5.57v-.2c.53 0 .99-1.06.99-2.03V9.23c0-1.05-.47-2.05-1-2.05v-.22a14 14 0 0 0 4.33-.85h.25v6.8a5 5 0 0 1 3.82-1.8c2.3 0 3.56 1.43 3.56 4.01v4.8c0 1.03.47 2.1 1 2.1v.21h-5.57v-.2c.53 0 .99-1.06.99-2.03zM180.73 10.39c-.01 1.13-.76 2.1-1.91 2.1-1.34 0-1.9-.8-1.88-1.94.01-1.22.3-3.2-1.84-3.2-1.91 0-3.66 1.9-3.66 6.21 0 3.85 1.81 6.27 4.69 6.27a4.1 4.1 0 0 0 4.32-3.87h.22c.25 3.84-2.23 6.49-6.1 6.49-4.23 0-6.97-3.1-6.97-7.85s3.29-7.87 7.6-7.87c3.4 0 5.6 1.71 5.55 3.65zM187.3 11.1a5.66 5.66 0 1 1 0 11.35c-3.3 0-5.92-2.44-5.92-5.66s2.58-5.68 5.91-5.68m-.03 10.82c1.13 0 2.04-1.12 2.04-5.15s-.91-5.13-2.03-5.13c-1.13 0-2.05 1.11-2.05 5.13s.92 5.15 2.05 5.15"/>
    <path fill="#000" d="M200.88 14.55q.01-1.9-1.6-1.9c-.66 0-1.35.47-1.77 1.16v6.1c0 1.04.47 2.11 1 2.11v.21h-5.57v-.2c.53 0 1-1.06 1-2.03v-5.55c0-1.05-.47-2.06-1-2.06v-.21a14 14 0 0 0 4.33-.86h.24v1.57a4.6 4.6 0 0 1 3.62-1.76q2.26.01 3 1.89a4.6 4.6 0 0 1 3.7-1.9c2.17 0 3.34 1.44 3.34 4.02v4.8c0 1.03.47 2.1 1 2.1v.21h-5.57v-.21c.53 0 .99-1.06.99-2.03v-5.44q0-1.9-1.6-1.9c-.6 0-1.22.38-1.65.97q.14.68.15 1.5v4.8c0 1.03.46 2.1.99 2.1v.21h-5.57v-.21c.53 0 1-1.06 1-2.03v-5.44z"/>
    <path fill="#000" d="M216.53 11.32v1.14a5.8 5.8 0 0 1 3.58-1.35c2.6 0 4.56 2.04 4.56 5.46 0 3.43-1.98 5.88-5 5.88a3.8 3.8 0 0 1-3.14-1.43v3.7c0 1.04.46 2.1.99 2.1v.22h-5.57v-.21c.53 0 1-1.06 1-2.03V14.45c0-1.05-.47-2.06-1-2.06v-.21a14 14 0 0 0 4.33-.86zm0 7.89c.4 1.68 1.27 2.33 2.23 2.33 1.27 0 2.11-1.84 2.11-4.82s-.97-4.56-2.36-4.56c-.68 0-1.6.63-1.98 1.35zM234.94 20.49c0 .46.15.76.48.76.22 0 .4-.09.58-.45h.22c0 .96-.98 1.65-2.27 1.65-1.37 0-2.14-.38-2.48-1.2-.66.84-1.65 1.2-2.82 1.2-1.9 0-3.55-1.29-3.55-3.47 0-3.13 2.76-4.17 4.64-4.17 1.16 0 1.6.33 1.6.33v-1.51c0-1.2-.46-2-1.09-2q-.81 0-.82 1.67c0 .92-.81 1.61-2.05 1.61-1 0-1.54-.54-1.54-1.38 0-1.53 1.85-2.42 4.23-2.42 3.2 0 4.87 1.97 4.87 5.07zm-3.6-3.98c0-.48-.25-.99-.86-.99-.97 0-1.66 1.28-1.66 3.54 0 1.38.59 2.19 1.28 2.19q.72.02 1.24-.66z"/>
    <path fill="#000" d="M244.47 14.55q0-1.9-1.81-1.9c-.75 0-1.52.47-1.98 1.2v6.06c0 1.04.46 2.11.99 2.11v.21h-5.57v-.2c.53 0 1-1.06 1-2.03v-5.55c0-1.05-.47-2.06-1-2.06v-.21c1.57-.1 3.25-.38 4.33-.86h.25v1.58c.8-.98 2.2-1.8 3.81-1.8 2.3 0 3.57 1.44 3.57 4.02v4.8c0 1.03.46 2.1.99 2.1v.21h-5.57v-.2c.53 0 1-1.06 1-2.03z"/>
    <path fill="#000" d="M249.25 23.58c2.06 0 1.27 2.21 2.66 2.21.48 0 .96-.33 1.35-1.22l-4.01-10.96c-.45-1.22-1.14-2.09-1.67-2.09v-.21h5.91v.21c-.51 0-.74.86-.3 2.1l2.07 5.67 2.15-5.75c.44-1.15-.25-2.02-.76-2.02v-.21h3.33v.21c-.53 0-1.65.86-2.06 2.02l-3.95 10.6c-.78 2.13-1.96 3.11-3.65 3.11-3.19 0-3.35-3.68-1.07-3.68z"/>
    <path fill="#c1995b" d="M152.45 29.46q1.54 0 2.7.6 1.19.6 1.81 1.73.65 1.11.65 2.58t-.65 2.58a4.3 4.3 0 0 1-1.8 1.7q-1.18.6-2.71.6h-3.43v-9.79zm-.07 8.12q1.53 0 2.38-.84a3.2 3.2 0 0 0 .84-2.37q0-1.53-.84-2.38-.85-.87-2.38-.87h-1.4v6.46zM146.32 39.25h-1.97l-4.44-6.72v6.72h-1.97v-9.8h1.97l4.44 6.73v-6.73h1.97zM129.33 29.46v6.06q0 .99.52 1.53.51.52 1.46.52.94 0 1.47-.52.52-.54.52-1.53v-6.06h1.97v6.05a4 4 0 0 1-.54 2.11q-.54.85-1.45 1.3-.9.43-2 .43t-2-.44a3.3 3.3 0 0 1-1.4-1.29 4 4 0 0 1-.51-2.11v-6.05zM125.23 29.46v1.59h-4.08v2.5h3.13v1.56h-3.13v4.14h-1.96v-9.79zM109.83 37.7h3.23v1.55h-5.2v-9.79h1.97zM103.06 37.38h-3.9l-.64 1.87h-2.06l3.51-9.8h2.3l3.51 9.8h-2.08zm-.53-1.57-1.42-4.1-1.42 4.1zM88.44 29.46v6.06q0 .99.52 1.53.52.52 1.46.52.96 0 1.47-.52.52-.54.52-1.53v-6.06h1.98v6.05a4 4 0 0 1-.55 2.11q-.52.85-1.44 1.3-.9.43-2 .43a4.5 4.5 0 0 1-2-.44 3.3 3.3 0 0 1-1.4-1.29 4 4 0 0 1-.52-2.11v-6.05zM84.3 29.46v1.59h-2.6v8.2h-1.97v-8.2h-2.6v-1.59zM69.03 29.46v6.06q0 .99.52 1.53.52.52 1.46.52.95 0 1.47-.52.52-.54.52-1.53v-6.06h1.98v6.05a4 4 0 0 1-.55 2.11q-.53.85-1.44 1.3-.9.43-2 .43a4.5 4.5 0 0 1-2-.44 3.3 3.3 0 0 1-1.4-1.29 4 4 0 0 1-.52-2.11v-6.05zM64.38 29.46v9.79h-1.96v-6.37l-2.62 6.37H58.3l-2.63-6.37v6.37H53.7v-9.79h2.23l3.11 7.28 3.12-7.28z"/>
  </g>
  <defs>
    <linearGradient id="b" x1="0" x2="42.15" y1="23.01" y2="23.01" gradientUnits="userSpaceOnUse">
      <stop stop-color="#d49a29"/>
      <stop offset=".5" stop-color="#ebdf8b"/>
      <stop offset="1" stop-color="#ac722a"/>
    </linearGradient>
    <linearGradient id="c" x1="5.43" x2="36.72" y1="22.68" y2="22.68" gradientUnits="userSpaceOnUse">
      <stop stop-color="#c39f53"/>
      <stop offset=".5" stop-color="#ebdf8b"/>
      <stop offset="1" stop-color="#9f7a45"/>
    </linearGradient>
    <clipPath id="a">
      <path fill="#fff" d="M0 0h260v46H0z"/>
    </clipPath>
  </defs>
</svg>
