<?xml version="1.0" encoding="UTF-8" standalone="no"?>
<!-- Created with Inkscape (http://www.inkscape.org/) -->

<svg
   width="100"
   height="100"
   viewBox="0 0 100 100"
   version="1.1"
   id="svg5"
   inkscape:version="1.1 (c68e22c387, 2021-05-23)"
   sodipodi:docname="planning.svg"
   xmlns:inkscape="http://www.inkscape.org/namespaces/inkscape"
   xmlns:sodipodi="http://sodipodi.sourceforge.net/DTD/sodipodi-0.dtd"
   xmlns="http://www.w3.org/2000/svg"
   xmlns:svg="http://www.w3.org/2000/svg">
  <sodipodi:namedview
     id="namedview7"
     pagecolor="#ffffff"
     bordercolor="#666666"
     borderopacity="1.0"
     inkscape:pageshadow="2"
     inkscape:pageopacity="0.0"
     inkscape:pagecheckerboard="0"
     inkscape:document-units="px"
     showgrid="true"
     units="px"
     width="1000px"
     inkscape:zoom="4.6746294"
     inkscape:cx="61.07436"
     inkscape:cy="35.617797"
     inkscape:window-width="1920"
     inkscape:window-height="1001"
     inkscape:window-x="-9"
     inkscape:window-y="-9"
     inkscape:window-maximized="1"
     inkscape:current-layer="layer1">
    <inkscape:grid
       type="xygrid"
       id="grid828" />
  </sodipodi:namedview>
  <defs
     id="defs2" />
  <g
     inkscape:label="Layer 1"
     inkscape:groupmode="layer"
     id="layer1">
    <path
       id="path847"
       style="fill:none;stroke:#000080;stroke-width:2;stroke-linecap:round;stroke-linejoin:round;stroke-opacity:1;stroke-miterlimit:4;stroke-dasharray:none"
       d="m 43.76117,69.999998 h 22 m -22,-15 h 22 m -22,-15 h 22 m -31.5,30.00001 1.666667,1.500011 3.333333,-3.000021 m -5,-13.49999 1.666667,1.500011 3.333333,-3.000021 m -5,-13.49999 1.666667,1.500011 3.333333,-3.000021 M 35.01117,21 l 13,-9 c 1.73205,-1 2.26795,-1 4,0 l 12.999999,9 M 40.01117,21 h 20 M 68,21 h 2.022338 c 2.216001,0 4.000001,1.784 4.000001,4 v 60 c 0,2.216 -1.784,4 -4.000001,4 H 30 c -2.216,0 -4,-1.784 -4,-4 V 25 c 0,-2.216 1.784,-4 4,-4 v 0 h 2" />
  </g>
</svg>
