<?xml version="1.0" encoding="UTF-8" standalone="no"?>
<!-- Created with Inkscape (http://www.inkscape.org/) -->

<svg
   width="100"
   height="100"
   viewBox="0 0 100 100"
   version="1.1"
   id="svg5"
   inkscape:version="1.1 (c68e22c387, 2021-05-23)"
   sodipodi:docname="portfolio.svg"
   xmlns:inkscape="http://www.inkscape.org/namespaces/inkscape"
   xmlns:sodipodi="http://sodipodi.sourceforge.net/DTD/sodipodi-0.dtd"
   xmlns="http://www.w3.org/2000/svg"
   xmlns:svg="http://www.w3.org/2000/svg">
  <sodipodi:namedview
     id="namedview7"
     pagecolor="#ffffff"
     bordercolor="#666666"
     borderopacity="1.0"
     inkscape:pageshadow="2"
     inkscape:pageopacity="0.0"
     inkscape:pagecheckerboard="0"
     inkscape:document-units="px"
     showgrid="true"
     units="px"
     width="1000px"
     inkscape:zoom="8.724701"
     inkscape:cx="41.663319"
     inkscape:cy="44.184895"
     inkscape:window-width="1920"
     inkscape:window-height="1001"
     inkscape:window-x="-9"
     inkscape:window-y="-9"
     inkscape:window-maximized="1"
     inkscape:current-layer="layer1">
    <inkscape:grid
       type="xygrid"
       id="grid828" />
  </sodipodi:namedview>
  <defs
     id="defs2" />
  <g
     inkscape:label="Layer 1"
     inkscape:groupmode="layer"
     id="layer1">
    <path
       style="fill:none;stroke:#000080;stroke-width:2;stroke-linecap:round;stroke-linejoin:miter;stroke-miterlimit:4;stroke-dasharray:none;stroke-opacity:1"
       d="M 80,15 V 45"
       id="path3068-3"
       sodipodi:nodetypes="cc" />
    <path
       style="fill:none;stroke:#000080;stroke-width:2;stroke-linecap:round;stroke-linejoin:miter;stroke-miterlimit:4;stroke-dasharray:none;stroke-opacity:1"
       d="M 75,20 V 45"
       id="path4363"
       sodipodi:nodetypes="cc" />
    <path
       style="fill:none;stroke:#000080;stroke-width:2;stroke-linecap:round;stroke-linejoin:miter;stroke-miterlimit:4;stroke-dasharray:none;stroke-opacity:1"
       d="M 70,25 V 45"
       id="path834"
       sodipodi:nodetypes="cc" />
    <path
       style="fill:none;stroke:#000080;stroke-width:2;stroke-linecap:round;stroke-linejoin:miter;stroke-miterlimit:4;stroke-dasharray:none;stroke-opacity:1"
       d="M 65,30 V 45"
       id="path836"
       sodipodi:nodetypes="cc" />
    <path
       style="fill:none;stroke:#000080;stroke-width:2;stroke-linecap:round;stroke-linejoin:miter;stroke-miterlimit:4;stroke-dasharray:none;stroke-opacity:1"
       d="M 60,35 V 45"
       id="path857"
       sodipodi:nodetypes="cc" />
    <path
       id="path1296"
       style="fill:none;stroke:#000080;stroke-width:2.00002;stroke-linecap:round;stroke-linejoin:miter;stroke-miterlimit:4;stroke-dasharray:none;stroke-opacity:1"
       d="m 40.999999,58.999999 -10,10" />
    <path
       id="path1013"
       style="fill:none;fill-opacity:0.106776;stroke:#000080;stroke-width:2;stroke-linecap:round;stroke-opacity:1"
       d="m 34,59 c 0,1.38071 -1.11929,2.5 -2.5,2.5 -1.380714,0 -2.5,-1.11929 -2.5,-2.5 0,-1.380709 1.119286,-2.499999 2.5,-2.499999 1.38071,0 2.5,1.11929 2.5,2.499999 z"
       sodipodi:nodetypes="sssss" />
    <path
       id="path1015"
       style="fill:none;fill-opacity:0.106776;stroke:#000080;stroke-width:2;stroke-linecap:round;stroke-opacity:1"
       d="m 43,69 c 0,1.38071 -1.11929,2.5 -2.5,2.5 -1.380714,0 -2.5,-1.11929 -2.5,-2.5 0,-1.380709 1.119286,-2.499999 2.5,-2.499999 1.38071,0 2.5,1.11929 2.5,2.499999 z"
       sodipodi:nodetypes="sssss" />
    <path
       id="path863"
       style="fill:none;fill-opacity:0.106776;stroke:#000080;stroke-width:2;stroke-linecap:round;stroke-opacity:1"
       d="m 90,75 c 0,8.284272 -6.715728,15 -15,15 -8.284272,0 -15,-6.715728 -15,-15 0,-8.284272 6.715728,-15 15,-15 8.284272,0 15,6.715728 15,15 z"
       sodipodi:nodetypes="sssss" />
    <path
       id="path4085"
       style="fill:none;stroke:#000080;stroke-width:2;stroke-linecap:round;stroke-linejoin:miter;stroke-miterlimit:4;stroke-dasharray:none;stroke-opacity:1"
       d="m 75,86 v -3 m 0,-16 v -3 m 0,11 c 0,0 0,0 0,0 2.209139,0 4,1.790861 4,4 v 0 c 0,2.209139 -1.790861,4 -4,4 -2.209139,0 -4,-1.790861 -4,-4 m 4,-4 c -2.209139,0 -4,-1.790861 -4,-4 0,-2.209139 1.790861,-4 4,-4 2.209139,0 4,1.790861 4,4" />
    <path
       id="path876"
       style="fill:none;stroke:#000080;stroke-width:2;stroke-linecap:round;stroke-linejoin:miter;stroke-miterlimit:4;stroke-dasharray:none;stroke-opacity:1"
       d="m 20.382915,31.359409 7.343739,7.343739 m 4.785148,4.785147 6.511709,6.511709 m 45.621718,-5.00229 C 84.879027,46.631457 85,48.301601 85,50 v 0 c 0,2.849501 -0.340522,5.619469 -0.983093,8.271431 M 58.271431,84.016907 C 55.619469,84.659478 52.849501,85 50,85 30.670034,85 15,69.329966 15,50 15,30.670034 30.670034,15 50,15 c 7.107473,0 13.720133,2.118548 19.240946,5.758609 M 15,50 H 85 M 50,15 V 85 M 16.711481,39.182095 27.529957,50.000571 m -2.013836,-25.002079 3.208042,3.208042 m 3.535194,3.535194 9.464948,9.464947 m 3.535192,3.535192 4.73931,4.73931 m -18.002631,-29.496752 8.974597,8.974596 m 3.535152,3.535152 5.494133,5.494133 M 39.972194,16.466316 49.998671,26.492793" />
  </g>
</svg>
