<svg xmlns="http://www.w3.org/2000/svg" width="127" height="22" fill="#fff" class="w-32" viewBox="0 0 127 23"><path fill="#1C1C1C" d="M18.56 16.09V2.4a2.4 2.4 0 0 0-2.4-2.4H2.4A2.4 2.4 0 0 0 0 2.4v13.72c0 .86.45 1.64 1.18 2.07l6.65 3.91a2.4 2.4 0 0 0 2.38.03l7.11-3.95a2.4 2.4 0 0 0 1.24-2.1Z"/><path d="M7.73 6.92a1.08 1.08 0 1 1-2.16 0 1.08 1.08 0 0 1 2.16 0ZM12.69 11.87a1.08 1.08 0 1 1-2.17 0 1.08 1.08 0 0 1 2.17 0ZM11.47 6.1a.89.89 0 0 1 1.26 1.25L7.09 13a.89.89 0 0 1-1.26-1.26l5.64-5.65Z"/><path fill="#1C1C1C" d="M30.4 13.9v-2.07h3.25c.76 0 1.35-.2 1.77-.58.43-.4.64-.95.64-1.67v-.02c0-.72-.21-1.28-.64-1.66a2.53 2.53 0 0 0-1.77-.58H30.4v-2.1h3.88c.9 0 1.68.18 2.34.54.67.36 1.18.86 1.55 1.51.38.65.57 1.41.57 2.28v.02a4.5 4.5 0 0 1-.57 2.28 3.83 3.83 0 0 1-1.55 1.51c-.66.36-1.44.54-2.34.54h-3.88Zm-1.32 4V5.22h2.65V17.9h-2.65Zm15.81.2c-.98 0-1.82-.2-2.53-.6-.7-.4-1.25-.99-1.63-1.74a5.9 5.9 0 0 1-.57-2.68c0-1.03.19-1.92.56-2.68.38-.75.92-1.34 1.61-1.75a4.7 4.7 0 0 1 2.45-.62c.94 0 1.75.2 2.44.6a4 4 0 0 1 1.58 1.7c.37.72.55 1.57.55 2.55v.8h-7.9v-1.6h6.67l-1.2 1.51v-1.03a3.5 3.5 0 0 0-.26-1.45 1.9 1.9 0 0 0-1.83-1.16 1.97 1.97 0 0 0-1.86 1.2c-.18.38-.27.85-.27 1.41v1.04c0 .54.1 1 .27 1.4a2.02 2.02 0 0 0 1.97 1.19c.38 0 .7-.06.96-.17.26-.11.48-.24.63-.39.17-.15.28-.29.34-.41l.02-.05 2.39-.01-.02.1a3.59 3.59 0 0 1-1.24 1.88c-.35.28-.78.52-1.3.7-.52.17-1.13.26-1.83.26Zm6.52-.2V8.23h2.57v1.52h.15c.16-.53.44-.94.86-1.23.42-.3.94-.44 1.56-.44a3.6 3.6 0 0 1 .95.12v2.24a4.68 4.68 0 0 0-1.17-.14c-.48 0-.9.09-1.25.26-.35.18-.63.43-.82.76-.19.32-.28.72-.28 1.17v5.41H51.4Zm11.7 0 4.41-12.68h2.27v2.53h-.78L65.9 17.9h-2.8Zm2.36-3.08.65-1.98H72l.65 1.98h-7.17Zm6.79 3.08-3.1-10.15V5.22h1.48l4.41 12.68h-2.8Zm4.66 0V8.23h2.56v1.5h.15c.23-.52.57-.94 1.04-1.24.47-.3 1.05-.46 1.75-.46 1.07 0 1.89.32 2.45.95.57.63.85 1.52.85 2.67v6.25h-2.56v-5.67c0-.68-.15-1.2-.43-1.55-.29-.35-.74-.52-1.34-.52a1.73 1.73 0 0 0-1.68 1.02c-.15.32-.23.7-.23 1.13v5.59h-2.56Zm11.25 0V8.23h2.56v1.5h.15c.23-.52.57-.94 1.04-1.24.47-.3 1.05-.46 1.75-.46 1.07 0 1.89.32 2.45.95.57.63.85 1.52.85 2.67v6.25h-2.56v-5.67c0-.68-.15-1.2-.43-1.55-.29-.35-.74-.52-1.34-.52a1.73 1.73 0 0 0-1.68 1.02c-.15.32-.23.7-.23 1.13v5.59h-2.56Zm14.44.2c-.72 0-1.33-.14-1.81-.42-.49-.28-.86-.7-1.1-1.23a4.76 4.76 0 0 1-.37-1.97V8.23h2.57v5.67c0 .68.13 1.2.4 1.55.28.35.72.53 1.32.53.31 0 .6-.05.83-.15a1.78 1.78 0 0 0 1-1.12c.08-.26.12-.56.12-.89V8.23h2.57v9.67h-2.57v-1.5h-.15c-.15.36-.35.66-.61.92-.27.25-.59.45-.95.58-.37.13-.79.2-1.25.2Zm8.06-.2V8.23h2.56v1.52h.15c.2-.54.55-.96 1.01-1.26.48-.3 1.03-.46 1.67-.46.44 0 .84.07 1.19.22a2.52 2.52 0 0 1 1.5 1.57h.14c.16-.36.37-.67.65-.94a3.45 3.45 0 0 1 2.27-.85c.65 0 1.2.13 1.67.4.47.26.83.63 1.08 1.12.26.48.39 1.05.39 1.72v6.63h-2.57v-5.99c0-.39-.05-.71-.17-.97a1.2 1.2 0 0 0-.54-.59c-.23-.13-.53-.2-.89-.2-.34 0-.64.09-.9.24-.25.16-.45.37-.59.65-.14.27-.21.58-.21.93v5.93h-2.56v-6.1c0-.35-.06-.65-.2-.89-.11-.24-.3-.43-.54-.56-.23-.13-.52-.2-.85-.2-.33 0-.63.09-.89.25-.25.17-.45.4-.6.69a2.2 2.2 0 0 0-.2.98v5.83h-2.57Z"/></svg>